<?xml version="1.0" encoding="UTF-8" standalone="no"?>
<!DOCTYPE svg PUBLIC "-//W3C//DTD SVG 1.1//EN"
 "http://www.w3.org/Graphics/SVG/1.1/DTD/svg11.dtd">
<!-- Generated by graphviz version 2.36.0 (20140111.2315)
 -->
<!-- Title: G Pages: 1 -->
<svg width="188pt" height="360pt"
 viewBox="0.00 0.00 188.21 360.00" xmlns="http://www.w3.org/2000/svg" xmlns:xlink="http://www.w3.org/1999/xlink">
<g id="graph0" class="graph" transform="scale(0.342205 0.342205) rotate(0) translate(4 1048)">
<title>G</title>
<polygon fill="white" stroke="none" points="-4,4 -4,-1048 546,-1048 546,4 -4,4"/>
<!-- Status_Webserver_root -->
<g id="node1" class="node"><title>Status_Webserver_root</title>
<ellipse fill="none" stroke="black" cx="230" cy="-306" rx="92.115" ry="18"/>
<text text-anchor="middle" x="230" y="-301.8" font-family="Times,serif" font-size="14.00">Status_Webserver_root</text>
</g>
<!-- rpea_CVE_2014_2408Databaseserver -->
<g id="node2" class="node"><title>rpea_CVE_2014_2408Databaseserver</title>
<polygon fill="none" stroke="black" points="481.946,-108 252.054,-108 252.054,-72 481.946,-72 481.946,-108"/>
<text text-anchor="middle" x="367" y="-85.8" font-family="Times,serif" font-size="14.00">rpea_CVE_2014_2408Databaseserver</text>
</g>
<!-- Status_Webserver_root&#45;&gt;rpea_CVE_2014_2408Databaseserver -->
<g id="edge1" class="edge"><title>Status_Webserver_root&#45;&gt;rpea_CVE_2014_2408Databaseserver</title>
<path fill="none" stroke="black" d="M228.093,-288.003C225.477,-256.321 224.33,-187.517 257,-144 267.267,-130.325 281.985,-120.005 297.331,-112.285"/>
<polygon fill="black" stroke="black" points="298.838,-115.444 306.41,-108.033 295.869,-109.104 298.838,-115.444"/>
</g>
<!-- rpea_CVE_2008_6534FTPserver_1 -->
<g id="node16" class="node"><title>rpea_CVE_2008_6534FTPserver_1</title>
<polygon fill="none" stroke="black" points="475.56,-252 258.44,-252 258.44,-216 475.56,-216 475.56,-252"/>
<text text-anchor="middle" x="367" y="-229.8" font-family="Times,serif" font-size="14.00">rpea_CVE_2008_6534FTPserver_1</text>
</g>
<!-- Status_Webserver_root&#45;&gt;rpea_CVE_2008_6534FTPserver_1 -->
<g id="edge16" class="edge"><title>Status_Webserver_root&#45;&gt;rpea_CVE_2008_6534FTPserver_1</title>
<path fill="none" stroke="black" d="M261.431,-288.941C280.064,-279.42 303.935,-267.223 324.263,-256.837"/>
<polygon fill="black" stroke="black" points="326.009,-259.875 333.322,-252.208 322.824,-253.641 326.009,-259.875"/>
</g>
<!-- Status_Databaseserver_root -->
<g id="node3" class="node"><title>Status_Databaseserver_root</title>
<ellipse fill="tomato" stroke="tomato" cx="367" cy="-18" rx="108.242" ry="18"/>
<text text-anchor="middle" x="367" y="-13.8" font-family="Times,serif" font-size="14.00">Status_Databaseserver_root</text>
</g>
<!-- rpea_CVE_2014_2408Databaseserver&#45;&gt;Status_Databaseserver_root -->
<g id="edge2" class="edge"><title>rpea_CVE_2014_2408Databaseserver&#45;&gt;Status_Databaseserver_root</title>
<path fill="none" stroke="black" d="M367,-71.6966C367,-63.9827 367,-54.7125 367,-46.1124"/>
<polygon fill="black" stroke="black" points="370.5,-46.1043 367,-36.1043 363.5,-46.1044 370.5,-46.1043"/>
</g>
<!-- Status_Webserver_user -->
<g id="node4" class="node"><title>Status_Webserver_user</title>
<ellipse fill="none" stroke="black" cx="105" cy="-450" rx="92.3472" ry="18"/>
<text text-anchor="middle" x="105" y="-445.8" font-family="Times,serif" font-size="14.00">Status_Webserver_user</text>
</g>
<!-- lpea_CVE_2003_0542Webserver -->
<g id="node5" class="node"><title>lpea_CVE_2003_0542Webserver</title>
<polygon fill="none" stroke="black" points="214.374,-396 11.6263,-396 11.6263,-360 214.374,-360 214.374,-396"/>
<text text-anchor="middle" x="113" y="-373.8" font-family="Times,serif" font-size="14.00">lpea_CVE_2003_0542Webserver</text>
</g>
<!-- Status_Webserver_user&#45;&gt;lpea_CVE_2003_0542Webserver -->
<g id="edge3" class="edge"><title>Status_Webserver_user&#45;&gt;lpea_CVE_2003_0542Webserver</title>
<path fill="none" stroke="black" d="M106.978,-431.697C107.859,-423.983 108.919,-414.712 109.901,-406.112"/>
<polygon fill="black" stroke="black" points="113.387,-406.437 111.045,-396.104 106.432,-405.642 113.387,-406.437"/>
</g>
<!-- lpea_CVE_2003_0542Webserver&#45;&gt;Status_Webserver_root -->
<g id="edge4" class="edge"><title>lpea_CVE_2003_0542Webserver&#45;&gt;Status_Webserver_root</title>
<path fill="none" stroke="black" d="M141.621,-359.876C157.376,-350.45 177.082,-338.66 193.886,-328.606"/>
<polygon fill="black" stroke="black" points="196.095,-331.363 202.88,-323.226 192.501,-325.356 196.095,-331.363"/>
</g>
<!-- Status_User_1_root -->
<g id="node6" class="node"><title>Status_User_1_root</title>
<ellipse fill="#e5e5e5" stroke="#e5e5e5" cx="375" cy="-594" rx="80.0375" ry="18"/>
<text text-anchor="middle" x="375" y="-589.8" font-family="Times,serif" font-size="14.00">Status_User_1_root</text>
</g>
<!-- Status_User_1_root&#45;&gt;rpea_CVE_2014_2408Databaseserver -->
<g id="edge24" class="edge"><title>Status_User_1_root&#45;&gt;rpea_CVE_2014_2408Databaseserver</title>
<path fill="none" stroke="black" d="M413.888,-578.012C432.322,-569.269 453.441,-556.646 468,-540 496.09,-507.882 504,-493.669 504,-451 504,-451 504,-451 504,-233 504,-191.533 503.077,-175.406 476,-144 464.399,-130.545 448.595,-120.2 432.621,-112.377"/>
<polygon fill="black" stroke="black" points="433.774,-109.055 423.226,-108.058 430.85,-115.415 433.774,-109.055"/>
</g>
<!-- rpea_CVE_2010_2730Webserver -->
<g id="node7" class="node"><title>rpea_CVE_2010_2730Webserver</title>
<polygon fill="none" stroke="black" points="203.953,-540 0.0466881,-540 0.0466881,-504 203.953,-504 203.953,-540"/>
<text text-anchor="middle" x="102" y="-517.8" font-family="Times,serif" font-size="14.00">rpea_CVE_2010_2730Webserver</text>
</g>
<!-- Status_User_1_root&#45;&gt;rpea_CVE_2010_2730Webserver -->
<g id="edge5" class="edge"><title>Status_User_1_root&#45;&gt;rpea_CVE_2010_2730Webserver</title>
<path fill="none" stroke="black" d="M324.291,-579.998C283.262,-569.478 224.844,-554.499 178.191,-542.536"/>
<polygon fill="black" stroke="black" points="178.981,-539.125 168.425,-540.032 177.242,-545.906 178.981,-539.125"/>
</g>
<!-- Status_User_1_root&#45;&gt;rpea_CVE_2008_6534FTPserver_1 -->
<g id="edge22" class="edge"><title>Status_User_1_root&#45;&gt;rpea_CVE_2008_6534FTPserver_1</title>
<path fill="none" stroke="black" d="M405.321,-577.131C419.729,-568.101 435.957,-555.487 446,-540 468.058,-505.984 466,-491.542 466,-451 466,-451 466,-451 466,-377 466,-328.378 426.458,-284.497 397.355,-258.784"/>
<polygon fill="black" stroke="black" points="399.336,-255.873 389.465,-252.025 394.782,-261.189 399.336,-255.873"/>
</g>
<!-- rpea_CVE_2014_0133SMTPserver -->
<g id="node18" class="node"><title>rpea_CVE_2014_0133SMTPserver</title>
<polygon fill="none" stroke="black" points="437.397,-540 222.603,-540 222.603,-504 437.397,-504 437.397,-540"/>
<text text-anchor="middle" x="330" y="-517.8" font-family="Times,serif" font-size="14.00">rpea_CVE_2014_0133SMTPserver</text>
</g>
<!-- Status_User_1_root&#45;&gt;rpea_CVE_2014_0133SMTPserver -->
<g id="edge19" class="edge"><title>Status_User_1_root&#45;&gt;rpea_CVE_2014_0133SMTPserver</title>
<path fill="none" stroke="black" d="M364.107,-576.055C358.878,-567.922 352.499,-557.998 346.677,-548.943"/>
<polygon fill="black" stroke="black" points="349.457,-546.794 341.106,-540.275 343.569,-550.58 349.457,-546.794"/>
</g>
<!-- rpea_CVE_2010_2730Webserver&#45;&gt;Status_Webserver_user -->
<g id="edge6" class="edge"><title>rpea_CVE_2010_2730Webserver&#45;&gt;Status_Webserver_user</title>
<path fill="none" stroke="black" d="M102.742,-503.697C103.072,-495.983 103.469,-486.712 103.838,-478.112"/>
<polygon fill="black" stroke="black" points="107.335,-478.245 104.267,-468.104 100.342,-477.945 107.335,-478.245"/>
</g>
<!-- Status_User_2_root -->
<g id="node8" class="node"><title>Status_User_2_root</title>
<ellipse fill="none" stroke="black" cx="255" cy="-738" rx="80.0375" ry="18"/>
<text text-anchor="middle" x="255" y="-733.8" font-family="Times,serif" font-size="14.00">Status_User_2_root</text>
</g>
<!-- rpea_CVE_2014_2928User_1 -->
<g id="node9" class="node"><title>rpea_CVE_2014_2928User_1</title>
<polygon fill="none" stroke="black" points="467.145,-684 282.855,-684 282.855,-648 467.145,-648 467.145,-684"/>
<text text-anchor="middle" x="375" y="-661.8" font-family="Times,serif" font-size="14.00">rpea_CVE_2014_2928User_1</text>
</g>
<!-- Status_User_2_root&#45;&gt;rpea_CVE_2014_2928User_1 -->
<g id="edge7" class="edge"><title>Status_User_2_root&#45;&gt;rpea_CVE_2014_2928User_1</title>
<path fill="none" stroke="black" d="M282.53,-720.941C298.558,-711.591 319.009,-699.662 336.6,-689.4"/>
<polygon fill="black" stroke="black" points="338.626,-692.27 345.501,-684.208 335.099,-686.224 338.626,-692.27"/>
</g>
<!-- rpea_CVE_2014_2928User_1&#45;&gt;Status_User_1_root -->
<g id="edge8" class="edge"><title>rpea_CVE_2014_2928User_1&#45;&gt;Status_User_1_root</title>
<path fill="none" stroke="black" d="M375,-647.697C375,-639.983 375,-630.712 375,-622.112"/>
<polygon fill="black" stroke="black" points="378.5,-622.104 375,-612.104 371.5,-622.104 378.5,-622.104"/>
</g>
<!-- Status_User_3_root -->
<g id="node10" class="node"><title>Status_User_3_root</title>
<ellipse fill="none" stroke="black" cx="434" cy="-738" rx="80.0375" ry="18"/>
<text text-anchor="middle" x="434" y="-733.8" font-family="Times,serif" font-size="14.00">Status_User_3_root</text>
</g>
<!-- Status_User_3_root&#45;&gt;rpea_CVE_2014_2928User_1 -->
<g id="edge9" class="edge"><title>Status_User_3_root&#45;&gt;rpea_CVE_2014_2928User_1</title>
<path fill="none" stroke="black" d="M419.718,-720.055C412.649,-711.668 403.974,-701.376 396.153,-692.096"/>
<polygon fill="black" stroke="black" points="398.682,-689.666 389.561,-684.275 393.329,-694.177 398.682,-689.666"/>
</g>
<!-- Status_DNSserver_root -->
<g id="node11" class="node"><title>Status_DNSserver_root</title>
<ellipse fill="none" stroke="black" cx="383" cy="-882" rx="94.1667" ry="18"/>
<text text-anchor="middle" x="383" y="-877.8" font-family="Times,serif" font-size="14.00">Status_DNSserver_root</text>
</g>
<!-- rpea_CVE_2009_3796User_3 -->
<g id="node12" class="node"><title>rpea_CVE_2009_3796User_3</title>
<polygon fill="none" stroke="black" points="494.145,-828 309.855,-828 309.855,-792 494.145,-792 494.145,-828"/>
<text text-anchor="middle" x="402" y="-805.8" font-family="Times,serif" font-size="14.00">rpea_CVE_2009_3796User_3</text>
</g>
<!-- Status_DNSserver_root&#45;&gt;rpea_CVE_2009_3796User_3 -->
<g id="edge10" class="edge"><title>Status_DNSserver_root&#45;&gt;rpea_CVE_2009_3796User_3</title>
<path fill="none" stroke="black" d="M387.697,-863.697C389.813,-855.898 392.362,-846.509 394.718,-837.829"/>
<polygon fill="black" stroke="black" points="398.116,-838.672 397.357,-828.104 391.36,-836.838 398.116,-838.672"/>
</g>
<!-- rpea_CVE_2009_3796User_3&#45;&gt;Status_User_3_root -->
<g id="edge11" class="edge"><title>rpea_CVE_2009_3796User_3&#45;&gt;Status_User_3_root</title>
<path fill="none" stroke="black" d="M409.91,-791.697C413.553,-783.728 417.954,-774.1 421.994,-765.264"/>
<polygon fill="black" stroke="black" points="425.206,-766.654 426.181,-756.104 418.84,-763.744 425.206,-766.654"/>
</g>
<!-- Status_Malicious_root -->
<g id="node13" class="node"><title>Status_Malicious_root</title>
<ellipse fill="none" stroke="black" cx="246" cy="-1026" rx="90.2791" ry="18"/>
<text text-anchor="middle" x="246" y="-1021.8" font-family="Times,serif" font-size="14.00">Status_Malicious_root</text>
</g>
<!-- Status_Malicious_root&#45;&gt;rpea_CVE_2010_2730Webserver -->
<g id="edge14" class="edge"><title>Status_Malicious_root&#45;&gt;rpea_CVE_2010_2730Webserver</title>
<path fill="none" stroke="black" d="M212.11,-1009.17C170.677,-987.191 106,-943.238 106,-883 106,-883 106,-883 106,-665 106,-624.98 104.393,-578.641 103.216,-550.073"/>
<polygon fill="black" stroke="black" points="106.711,-549.887 102.79,-540.045 99.7177,-550.184 106.711,-549.887"/>
</g>
<!-- rpea_CVE_2007_3039DNSserver -->
<g id="node14" class="node"><title>rpea_CVE_2007_3039DNSserver</title>
<polygon fill="none" stroke="black" points="448.472,-972 241.528,-972 241.528,-936 448.472,-936 448.472,-972"/>
<text text-anchor="middle" x="345" y="-949.8" font-family="Times,serif" font-size="14.00">rpea_CVE_2007_3039DNSserver</text>
</g>
<!-- Status_Malicious_root&#45;&gt;rpea_CVE_2007_3039DNSserver -->
<g id="edge12" class="edge"><title>Status_Malicious_root&#45;&gt;rpea_CVE_2007_3039DNSserver</title>
<path fill="none" stroke="black" d="M269.211,-1008.59C282.084,-999.486 298.3,-988.021 312.424,-978.033"/>
<polygon fill="black" stroke="black" points="314.756,-980.671 320.901,-972.04 310.715,-974.956 314.756,-980.671"/>
</g>
<!-- Status_Malicious_root&#45;&gt;rpea_CVE_2008_6534FTPserver_1 -->
<g id="edge23" class="edge"><title>Status_Malicious_root&#45;&gt;rpea_CVE_2008_6534FTPserver_1</title>
<path fill="none" stroke="black" d="M330.822,-1019.67C418.289,-1009.04 542,-977.329 542,-883 542,-883 542,-883 542,-377 542,-316.778 478.737,-277.64 428.285,-256.002"/>
<polygon fill="black" stroke="black" points="429.61,-252.763 419.032,-252.165 426.928,-259.229 429.61,-252.763"/>
</g>
<!-- Status_Malicious_root&#45;&gt;rpea_CVE_2014_0133SMTPserver -->
<g id="edge21" class="edge"><title>Status_Malicious_root&#45;&gt;rpea_CVE_2014_0133SMTPserver</title>
<path fill="none" stroke="black" d="M224.029,-1008.38C194.862,-984.249 147,-936.494 147,-883 147,-883 147,-883 147,-665 147,-603.671 211.946,-565.018 264.458,-543.789"/>
<polygon fill="black" stroke="black" points="266.056,-546.922 274.1,-540.026 263.511,-540.401 266.056,-546.922"/>
</g>
<!-- rpea_CVE_2007_3039DNSserver&#45;&gt;Status_DNSserver_root -->
<g id="edge13" class="edge"><title>rpea_CVE_2007_3039DNSserver&#45;&gt;Status_DNSserver_root</title>
<path fill="none" stroke="black" d="M354.393,-935.697C358.765,-927.644 364.057,-917.894 368.895,-908.982"/>
<polygon fill="black" stroke="black" points="372.02,-910.563 373.715,-900.104 365.868,-907.223 372.02,-910.563"/>
</g>
<!-- Status_FTPserver_1_root -->
<g id="node15" class="node"><title>Status_FTPserver_1_root</title>
<ellipse fill="none" stroke="black" cx="367" cy="-162" rx="100.253" ry="18"/>
<text text-anchor="middle" x="367" y="-157.8" font-family="Times,serif" font-size="14.00">Status_FTPserver_1_root</text>
</g>
<!-- Status_FTPserver_1_root&#45;&gt;rpea_CVE_2014_2408Databaseserver -->
<g id="edge15" class="edge"><title>Status_FTPserver_1_root&#45;&gt;rpea_CVE_2014_2408Databaseserver</title>
<path fill="none" stroke="black" d="M367,-143.697C367,-135.983 367,-126.712 367,-118.112"/>
<polygon fill="black" stroke="black" points="370.5,-118.104 367,-108.104 363.5,-118.104 370.5,-118.104"/>
</g>
<!-- rpea_CVE_2008_6534FTPserver_1&#45;&gt;Status_FTPserver_1_root -->
<g id="edge17" class="edge"><title>rpea_CVE_2008_6534FTPserver_1&#45;&gt;Status_FTPserver_1_root</title>
<path fill="none" stroke="black" d="M367,-215.697C367,-207.983 367,-198.712 367,-190.112"/>
<polygon fill="black" stroke="black" points="370.5,-190.104 367,-180.104 363.5,-190.104 370.5,-190.104"/>
</g>
<!-- Status_SMTPserver_root -->
<g id="node17" class="node"><title>Status_SMTPserver_root</title>
<ellipse fill="none" stroke="black" cx="336" cy="-378" rx="99.2825" ry="18"/>
<text text-anchor="middle" x="336" y="-373.8" font-family="Times,serif" font-size="14.00">Status_SMTPserver_root</text>
</g>
<!-- Status_SMTPserver_root&#45;&gt;rpea_CVE_2008_6534FTPserver_1 -->
<g id="edge18" class="edge"><title>Status_SMTPserver_root&#45;&gt;rpea_CVE_2008_6534FTPserver_1</title>
<path fill="none" stroke="black" d="M339.739,-359.871C345.046,-335.564 354.814,-290.819 361.103,-262.013"/>
<polygon fill="black" stroke="black" points="364.534,-262.706 363.247,-252.189 357.695,-261.213 364.534,-262.706"/>
</g>
<!-- rpea_CVE_2014_0133SMTPserver&#45;&gt;Status_SMTPserver_root -->
<g id="edge20" class="edge"><title>rpea_CVE_2014_0133SMTPserver&#45;&gt;Status_SMTPserver_root</title>
<path fill="none" stroke="black" d="M330.724,-503.871C331.746,-479.67 333.625,-435.211 334.843,-406.393"/>
<polygon fill="black" stroke="black" points="338.348,-406.328 335.274,-396.189 331.355,-406.033 338.348,-406.328"/>
</g>
</g>
</svg>
