<?xml version="1.0" encoding="UTF-8" standalone="no"?>
<!DOCTYPE svg PUBLIC "-//W3C//DTD SVG 1.1//EN"
 "http://www.w3.org/Graphics/SVG/1.1/DTD/svg11.dtd">
<!-- Generated by graphviz version 2.36.0 (20140111.2315)
 -->
<!-- Title: G Pages: 1 -->
<svg width="227pt" height="360pt"
 viewBox="0.00 0.00 226.54 360.00" xmlns="http://www.w3.org/2000/svg" xmlns:xlink="http://www.w3.org/1999/xlink">
<g id="graph0" class="graph" transform="scale(0.342205 0.342205) rotate(0) translate(4 1048)">
<title>G</title>
<polygon fill="white" stroke="none" points="-4,4 -4,-1048 658,-1048 658,4 -4,4"/>
<!-- Status_FTPserver_1_root -->
<g id="node1" class="node"><title>Status_FTPserver_1_root</title>
<ellipse fill="none" stroke="black" cx="177" cy="-162" rx="100.253" ry="18"/>
<text text-anchor="middle" x="177" y="-157.8" font-family="Times,serif" font-size="14.00">Status_FTPserver_1_root</text>
</g>
<!-- rpea_CVE_2014_2408Databaseserver -->
<g id="node2" class="node"><title>rpea_CVE_2014_2408Databaseserver</title>
<polygon fill="none" stroke="black" points="424.946,-108 195.054,-108 195.054,-72 424.946,-72 424.946,-108"/>
<text text-anchor="middle" x="310" y="-85.8" font-family="Times,serif" font-size="14.00">rpea_CVE_2014_2408Databaseserver</text>
</g>
<!-- Status_FTPserver_1_root&#45;&gt;rpea_CVE_2014_2408Databaseserver -->
<g id="edge2" class="edge"><title>Status_FTPserver_1_root&#45;&gt;rpea_CVE_2014_2408Databaseserver</title>
<path fill="none" stroke="black" d="M207.847,-144.765C225.866,-135.281 248.843,-123.188 268.441,-112.873"/>
<polygon fill="black" stroke="black" points="270.245,-115.879 277.465,-108.124 266.985,-109.684 270.245,-115.879"/>
</g>
<!-- Status_Databaseserver_root -->
<g id="node3" class="node"><title>Status_Databaseserver_root</title>
<ellipse fill="tomato" stroke="tomato" cx="310" cy="-18" rx="108.242" ry="18"/>
<text text-anchor="middle" x="310" y="-13.8" font-family="Times,serif" font-size="14.00">Status_Databaseserver_root</text>
</g>
<!-- rpea_CVE_2014_2408Databaseserver&#45;&gt;Status_Databaseserver_root -->
<g id="edge3" class="edge"><title>rpea_CVE_2014_2408Databaseserver&#45;&gt;Status_Databaseserver_root</title>
<path fill="none" stroke="black" d="M310,-71.6966C310,-63.9827 310,-54.7125 310,-46.1124"/>
<polygon fill="black" stroke="black" points="313.5,-46.1043 310,-36.1043 306.5,-46.1044 313.5,-46.1043"/>
</g>
<!-- Status_SMTPserver_root -->
<g id="node4" class="node"><title>Status_SMTPserver_root</title>
<ellipse fill="none" stroke="black" cx="140" cy="-378" rx="99.2825" ry="18"/>
<text text-anchor="middle" x="140" y="-373.8" font-family="Times,serif" font-size="14.00">Status_SMTPserver_root</text>
</g>
<!-- rpea_CVE_2008_6534FTPserver_1 -->
<g id="node5" class="node"><title>rpea_CVE_2008_6534FTPserver_1</title>
<polygon fill="none" stroke="black" points="281.56,-252 64.4397,-252 64.4397,-216 281.56,-216 281.56,-252"/>
<text text-anchor="middle" x="173" y="-229.8" font-family="Times,serif" font-size="14.00">rpea_CVE_2008_6534FTPserver_1</text>
</g>
<!-- Status_SMTPserver_root&#45;&gt;rpea_CVE_2008_6534FTPserver_1 -->
<g id="edge4" class="edge"><title>Status_SMTPserver_root&#45;&gt;rpea_CVE_2008_6534FTPserver_1</title>
<path fill="none" stroke="black" d="M143.981,-359.871C149.63,-335.564 160.028,-290.819 166.722,-262.013"/>
<polygon fill="black" stroke="black" points="170.151,-262.722 169.005,-252.189 163.332,-261.137 170.151,-262.722"/>
</g>
<!-- rpea_CVE_2008_6534FTPserver_1&#45;&gt;Status_FTPserver_1_root -->
<g id="edge5" class="edge"><title>rpea_CVE_2008_6534FTPserver_1&#45;&gt;Status_FTPserver_1_root</title>
<path fill="none" stroke="black" d="M173.989,-215.697C174.43,-207.983 174.959,-198.712 175.451,-190.112"/>
<polygon fill="black" stroke="black" points="178.946,-190.288 176.023,-180.104 171.958,-189.888 178.946,-190.288"/>
</g>
<!-- Status_Malicious_root -->
<g id="node6" class="node"><title>Status_Malicious_root</title>
<ellipse fill="#e5e5e5" stroke="#e5e5e5" cx="201" cy="-1026" rx="90.2791" ry="18"/>
<text text-anchor="middle" x="201" y="-1021.8" font-family="Times,serif" font-size="14.00">Status_Malicious_root</text>
</g>
<!-- Status_Malicious_root&#45;&gt;rpea_CVE_2008_6534FTPserver_1 -->
<g id="edge22" class="edge"><title>Status_Malicious_root&#45;&gt;rpea_CVE_2008_6534FTPserver_1</title>
<path fill="none" stroke="black" d="M146.076,-1011.64C86.5635,-993.502 0,-954.779 0,-883 0,-883 0,-883 0,-377 0,-317.133 62.662,-277.893 112.561,-256.136"/>
<polygon fill="black" stroke="black" points="114.174,-259.255 122.03,-252.146 111.456,-252.804 114.174,-259.255"/>
</g>
<!-- rpea_CVE_2014_0133SMTPserver -->
<g id="node7" class="node"><title>rpea_CVE_2014_0133SMTPserver</title>
<polygon fill="none" stroke="black" points="243.397,-540 28.6029,-540 28.6029,-504 243.397,-504 243.397,-540"/>
<text text-anchor="middle" x="136" y="-517.8" font-family="Times,serif" font-size="14.00">rpea_CVE_2014_0133SMTPserver</text>
</g>
<!-- Status_Malicious_root&#45;&gt;rpea_CVE_2014_0133SMTPserver -->
<g id="edge6" class="edge"><title>Status_Malicious_root&#45;&gt;rpea_CVE_2014_0133SMTPserver</title>
<path fill="none" stroke="black" d="M181.885,-1008.11C172.12,-998.471 160.878,-985.611 154,-972 135.758,-935.9 135,-923.447 135,-883 135,-883 135,-883 135,-665 135,-624.995 135.402,-578.652 135.696,-550.079"/>
<polygon fill="black" stroke="black" points="139.196,-550.086 135.802,-540.049 132.196,-550.011 139.196,-550.086"/>
</g>
<!-- rpea_CVE_2007_3039DNSserver -->
<g id="node14" class="node"><title>rpea_CVE_2007_3039DNSserver</title>
<polygon fill="none" stroke="black" points="370.472,-972 163.528,-972 163.528,-936 370.472,-936 370.472,-972"/>
<text text-anchor="middle" x="267" y="-949.8" font-family="Times,serif" font-size="14.00">rpea_CVE_2007_3039DNSserver</text>
</g>
<!-- Status_Malicious_root&#45;&gt;rpea_CVE_2007_3039DNSserver -->
<g id="edge14" class="edge"><title>Status_Malicious_root&#45;&gt;rpea_CVE_2007_3039DNSserver</title>
<path fill="none" stroke="black" d="M216.977,-1008.05C224.964,-999.583 234.785,-989.168 243.603,-979.815"/>
<polygon fill="black" stroke="black" points="246.398,-981.952 250.712,-972.275 241.305,-977.15 246.398,-981.952"/>
</g>
<!-- rpea_CVE_2010_2730Webserver -->
<g id="node19" class="node"><title>rpea_CVE_2010_2730Webserver</title>
<polygon fill="none" stroke="black" points="653.953,-540 450.047,-540 450.047,-504 653.953,-504 653.953,-540"/>
<text text-anchor="middle" x="552" y="-517.8" font-family="Times,serif" font-size="14.00">rpea_CVE_2010_2730Webserver</text>
</g>
<!-- Status_Malicious_root&#45;&gt;rpea_CVE_2010_2730Webserver -->
<g id="edge19" class="edge"><title>Status_Malicious_root&#45;&gt;rpea_CVE_2010_2730Webserver</title>
<path fill="none" stroke="black" d="M263.752,-1013.01C364.712,-991.901 552,-944.463 552,-883 552,-883 552,-883 552,-665 552,-624.996 552,-578.653 552,-550.08"/>
<polygon fill="black" stroke="black" points="555.5,-550.049 552,-540.049 548.5,-550.049 555.5,-550.049"/>
</g>
<!-- rpea_CVE_2014_0133SMTPserver&#45;&gt;Status_SMTPserver_root -->
<g id="edge7" class="edge"><title>rpea_CVE_2014_0133SMTPserver&#45;&gt;Status_SMTPserver_root</title>
<path fill="none" stroke="black" d="M136.482,-503.871C137.164,-479.67 138.417,-435.211 139.228,-406.393"/>
<polygon fill="black" stroke="black" points="142.733,-406.284 139.516,-396.189 135.736,-406.087 142.733,-406.284"/>
</g>
<!-- Status_User_1_root -->
<g id="node8" class="node"><title>Status_User_1_root</title>
<ellipse fill="none" stroke="black" cx="291" cy="-594" rx="80.0375" ry="18"/>
<text text-anchor="middle" x="291" y="-589.8" font-family="Times,serif" font-size="14.00">Status_User_1_root</text>
</g>
<!-- Status_User_1_root&#45;&gt;rpea_CVE_2014_2408Databaseserver -->
<g id="edge25" class="edge"><title>Status_User_1_root&#45;&gt;rpea_CVE_2014_2408Databaseserver</title>
<path fill="none" stroke="black" d="M294.845,-575.612C300.397,-548.942 310,-496.268 310,-451 310,-451 310,-451 310,-233 310,-192.996 310,-146.653 310,-118.08"/>
<polygon fill="black" stroke="black" points="313.5,-118.049 310,-108.049 306.5,-118.049 313.5,-118.049"/>
</g>
<!-- Status_User_1_root&#45;&gt;rpea_CVE_2008_6534FTPserver_1 -->
<g id="edge23" class="edge"><title>Status_User_1_root&#45;&gt;rpea_CVE_2008_6534FTPserver_1</title>
<path fill="none" stroke="black" d="M287.155,-575.612C281.603,-548.942 272,-496.268 272,-451 272,-451 272,-451 272,-377 272,-328.378 232.458,-284.497 203.355,-258.784"/>
<polygon fill="black" stroke="black" points="205.336,-255.873 195.465,-252.025 200.782,-261.189 205.336,-255.873"/>
</g>
<!-- Status_User_1_root&#45;&gt;rpea_CVE_2014_0133SMTPserver -->
<g id="edge8" class="edge"><title>Status_User_1_root&#45;&gt;rpea_CVE_2014_0133SMTPserver</title>
<path fill="none" stroke="black" d="M256.985,-577.638C235.271,-567.832 206.825,-554.985 182.971,-544.213"/>
<polygon fill="black" stroke="black" points="184.295,-540.97 173.741,-540.044 181.414,-547.35 184.295,-540.97"/>
</g>
<!-- Status_User_1_root&#45;&gt;rpea_CVE_2010_2730Webserver -->
<g id="edge21" class="edge"><title>Status_User_1_root&#45;&gt;rpea_CVE_2010_2730Webserver</title>
<path fill="none" stroke="black" d="M340.399,-579.751C379.419,-569.286 434.467,-554.522 478.634,-542.677"/>
<polygon fill="black" stroke="black" points="479.705,-546.013 488.457,-540.042 477.892,-539.252 479.705,-546.013"/>
</g>
<!-- Status_User_2_root -->
<g id="node9" class="node"><title>Status_User_2_root</title>
<ellipse fill="#e5e5e5" stroke="#e5e5e5" cx="444" cy="-738" rx="80.0375" ry="18"/>
<text text-anchor="middle" x="444" y="-733.8" font-family="Times,serif" font-size="14.00">Status_User_2_root</text>
</g>
<!-- rpea_CVE_2014_2928User_1 -->
<g id="node10" class="node"><title>rpea_CVE_2014_2928User_1</title>
<polygon fill="none" stroke="black" points="383.145,-684 198.855,-684 198.855,-648 383.145,-648 383.145,-684"/>
<text text-anchor="middle" x="291" y="-661.8" font-family="Times,serif" font-size="14.00">rpea_CVE_2014_2928User_1</text>
</g>
<!-- Status_User_2_root&#45;&gt;rpea_CVE_2014_2928User_1 -->
<g id="edge9" class="edge"><title>Status_User_2_root&#45;&gt;rpea_CVE_2014_2928User_1</title>
<path fill="none" stroke="black" d="M410.424,-721.638C388.99,-711.832 360.911,-698.985 337.365,-688.213"/>
<polygon fill="black" stroke="black" points="338.803,-685.022 328.254,-684.044 335.891,-691.387 338.803,-685.022"/>
</g>
<!-- rpea_CVE_2014_2928User_1&#45;&gt;Status_User_1_root -->
<g id="edge10" class="edge"><title>rpea_CVE_2014_2928User_1&#45;&gt;Status_User_1_root</title>
<path fill="none" stroke="black" d="M291,-647.697C291,-639.983 291,-630.712 291,-622.112"/>
<polygon fill="black" stroke="black" points="294.5,-622.104 291,-612.104 287.5,-622.104 294.5,-622.104"/>
</g>
<!-- Status_User_3_root -->
<g id="node11" class="node"><title>Status_User_3_root</title>
<ellipse fill="none" stroke="black" cx="265" cy="-738" rx="80.0375" ry="18"/>
<text text-anchor="middle" x="265" y="-733.8" font-family="Times,serif" font-size="14.00">Status_User_3_root</text>
</g>
<!-- Status_User_3_root&#45;&gt;rpea_CVE_2014_2928User_1 -->
<g id="edge11" class="edge"><title>Status_User_3_root&#45;&gt;rpea_CVE_2014_2928User_1</title>
<path fill="none" stroke="black" d="M271.294,-720.055C274.22,-712.176 277.771,-702.617 281.048,-693.794"/>
<polygon fill="black" stroke="black" points="284.383,-694.868 284.583,-684.275 277.821,-692.431 284.383,-694.868"/>
</g>
<!-- Status_DNSserver_root -->
<g id="node12" class="node"><title>Status_DNSserver_root</title>
<ellipse fill="none" stroke="black" cx="267" cy="-882" rx="94.1667" ry="18"/>
<text text-anchor="middle" x="267" y="-877.8" font-family="Times,serif" font-size="14.00">Status_DNSserver_root</text>
</g>
<!-- rpea_CVE_2009_3796User_3 -->
<g id="node13" class="node"><title>rpea_CVE_2009_3796User_3</title>
<polygon fill="none" stroke="black" points="358.145,-828 173.855,-828 173.855,-792 358.145,-792 358.145,-828"/>
<text text-anchor="middle" x="266" y="-805.8" font-family="Times,serif" font-size="14.00">rpea_CVE_2009_3796User_3</text>
</g>
<!-- Status_DNSserver_root&#45;&gt;rpea_CVE_2009_3796User_3 -->
<g id="edge12" class="edge"><title>Status_DNSserver_root&#45;&gt;rpea_CVE_2009_3796User_3</title>
<path fill="none" stroke="black" d="M266.753,-863.697C266.643,-855.983 266.51,-846.712 266.387,-838.112"/>
<polygon fill="black" stroke="black" points="269.887,-838.053 266.244,-828.104 262.888,-838.153 269.887,-838.053"/>
</g>
<!-- rpea_CVE_2009_3796User_3&#45;&gt;Status_User_3_root -->
<g id="edge13" class="edge"><title>rpea_CVE_2009_3796User_3&#45;&gt;Status_User_3_root</title>
<path fill="none" stroke="black" d="M265.753,-791.697C265.643,-783.983 265.51,-774.712 265.387,-766.112"/>
<polygon fill="black" stroke="black" points="268.887,-766.053 265.244,-756.104 261.888,-766.153 268.887,-766.053"/>
</g>
<!-- rpea_CVE_2007_3039DNSserver&#45;&gt;Status_DNSserver_root -->
<g id="edge15" class="edge"><title>rpea_CVE_2007_3039DNSserver&#45;&gt;Status_DNSserver_root</title>
<path fill="none" stroke="black" d="M267,-935.697C267,-927.983 267,-918.712 267,-910.112"/>
<polygon fill="black" stroke="black" points="270.5,-910.104 267,-900.104 263.5,-910.104 270.5,-910.104"/>
</g>
<!-- Status_Webserver_root -->
<g id="node15" class="node"><title>Status_Webserver_root</title>
<ellipse fill="none" stroke="black" cx="430" cy="-306" rx="92.115" ry="18"/>
<text text-anchor="middle" x="430" y="-301.8" font-family="Times,serif" font-size="14.00">Status_Webserver_root</text>
</g>
<!-- Status_Webserver_root&#45;&gt;rpea_CVE_2014_2408Databaseserver -->
<g id="edge24" class="edge"><title>Status_Webserver_root&#45;&gt;rpea_CVE_2014_2408Databaseserver</title>
<path fill="none" stroke="black" d="M420.383,-287.849C399.406,-250.44 349.433,-161.322 324.568,-116.98"/>
<polygon fill="black" stroke="black" points="327.607,-115.243 319.663,-108.232 321.501,-118.667 327.607,-115.243"/>
</g>
<!-- Status_Webserver_root&#45;&gt;rpea_CVE_2008_6534FTPserver_1 -->
<g id="edge16" class="edge"><title>Status_Webserver_root&#45;&gt;rpea_CVE_2008_6534FTPserver_1</title>
<path fill="none" stroke="black" d="M378.61,-291.003C340.423,-280.602 287.818,-266.273 245.378,-254.714"/>
<polygon fill="black" stroke="black" points="246.226,-251.317 235.657,-252.066 244.386,-258.071 246.226,-251.317"/>
</g>
<!-- Evidence -->
<g id="node16" class="node"><title>Evidence</title>
<polygon fill="#292929" stroke="#292929" points="431.324,-514.544 431.324,-529.456 404.188,-540 365.812,-540 338.676,-529.456 338.676,-514.544 365.812,-504 404.188,-504 431.324,-514.544"/>
<text text-anchor="middle" x="385" y="-517.8" font-family="Times,serif" font-size="14.00" fill="white">Evidence</text>
</g>
<!-- Status_Webserver_user -->
<g id="node17" class="node"><title>Status_Webserver_user</title>
<ellipse fill="none" stroke="black" cx="440" cy="-450" rx="92.3472" ry="18"/>
<text text-anchor="middle" x="440" y="-445.8" font-family="Times,serif" font-size="14.00">Status_Webserver_user</text>
</g>
<!-- Evidence&#45;&gt;Status_Webserver_user -->
<g id="edge1" class="edge"><title>Evidence&#45;&gt;Status_Webserver_user</title>
<path fill="none" stroke="black" d="M398.596,-503.697C405.123,-495.389 413.068,-485.277 420.247,-476.141"/>
<polygon fill="black" stroke="black" points="423.135,-478.13 426.561,-468.104 417.631,-473.805 423.135,-478.13"/>
</g>
<!-- lpea_CVE_2003_0542Webserver -->
<g id="node18" class="node"><title>lpea_CVE_2003_0542Webserver</title>
<polygon fill="none" stroke="black" points="541.374,-396 338.626,-396 338.626,-360 541.374,-360 541.374,-396"/>
<text text-anchor="middle" x="440" y="-373.8" font-family="Times,serif" font-size="14.00">lpea_CVE_2003_0542Webserver</text>
</g>
<!-- Status_Webserver_user&#45;&gt;lpea_CVE_2003_0542Webserver -->
<g id="edge17" class="edge"><title>Status_Webserver_user&#45;&gt;lpea_CVE_2003_0542Webserver</title>
<path fill="none" stroke="black" d="M440,-431.697C440,-423.983 440,-414.712 440,-406.112"/>
<polygon fill="black" stroke="black" points="443.5,-406.104 440,-396.104 436.5,-406.104 443.5,-406.104"/>
</g>
<!-- lpea_CVE_2003_0542Webserver&#45;&gt;Status_Webserver_root -->
<g id="edge18" class="edge"><title>lpea_CVE_2003_0542Webserver&#45;&gt;Status_Webserver_root</title>
<path fill="none" stroke="black" d="M437.528,-359.697C436.426,-351.983 435.102,-342.712 433.873,-334.112"/>
<polygon fill="black" stroke="black" points="437.323,-333.509 432.443,-324.104 430.393,-334.499 437.323,-333.509"/>
</g>
<!-- rpea_CVE_2010_2730Webserver&#45;&gt;Status_Webserver_user -->
<g id="edge20" class="edge"><title>rpea_CVE_2010_2730Webserver&#45;&gt;Status_Webserver_user</title>
<path fill="none" stroke="black" d="M524.602,-503.876C509.63,-494.519 490.93,-482.831 474.92,-472.825"/>
<polygon fill="black" stroke="black" points="476.679,-469.797 466.344,-467.465 472.969,-475.733 476.679,-469.797"/>
</g>
</g>
</svg>
