<?xml version="1.0" encoding="UTF-8" standalone="no"?>
<!DOCTYPE svg PUBLIC "-//W3C//DTD SVG 1.1//EN"
 "http://www.w3.org/Graphics/SVG/1.1/DTD/svg11.dtd">
<!-- Generated by graphviz version 2.36.0 (20140111.2315)
 -->
<!-- Title: G Pages: 1 -->
<svg width="189pt" height="360pt"
 viewBox="0.00 0.00 188.56 360.00" xmlns="http://www.w3.org/2000/svg" xmlns:xlink="http://www.w3.org/1999/xlink">
<g id="graph0" class="graph" transform="scale(0.342205 0.342205) rotate(0) translate(4 1048)">
<title>G</title>
<polygon fill="white" stroke="none" points="-4,4 -4,-1048 547,-1048 547,4 -4,4"/>
<!-- Status_FTPserver_1_root -->
<g id="node1" class="node"><title>Status_FTPserver_1_root</title>
<ellipse fill="none" stroke="black" cx="177" cy="-162" rx="100.253" ry="18"/>
<text text-anchor="middle" x="177" y="-157.8" font-family="Times,serif" font-size="14.00">Status_FTPserver_1_root</text>
</g>
<!-- rpea_CVE_2014_2408Databaseserver -->
<g id="node2" class="node"><title>rpea_CVE_2014_2408Databaseserver</title>
<polygon fill="none" stroke="black" points="424.946,-108 195.054,-108 195.054,-72 424.946,-72 424.946,-108"/>
<text text-anchor="middle" x="310" y="-85.8" font-family="Times,serif" font-size="14.00">rpea_CVE_2014_2408Databaseserver</text>
</g>
<!-- Status_FTPserver_1_root&#45;&gt;rpea_CVE_2014_2408Databaseserver -->
<g id="edge1" class="edge"><title>Status_FTPserver_1_root&#45;&gt;rpea_CVE_2014_2408Databaseserver</title>
<path fill="none" stroke="black" d="M207.847,-144.765C225.866,-135.281 248.843,-123.188 268.441,-112.873"/>
<polygon fill="black" stroke="black" points="270.245,-115.879 277.465,-108.124 266.985,-109.684 270.245,-115.879"/>
</g>
<!-- Status_Databaseserver_root -->
<g id="node3" class="node"><title>Status_Databaseserver_root</title>
<ellipse fill="tomato" stroke="tomato" cx="310" cy="-18" rx="108.242" ry="18"/>
<text text-anchor="middle" x="310" y="-13.8" font-family="Times,serif" font-size="14.00">Status_Databaseserver_root</text>
</g>
<!-- rpea_CVE_2014_2408Databaseserver&#45;&gt;Status_Databaseserver_root -->
<g id="edge2" class="edge"><title>rpea_CVE_2014_2408Databaseserver&#45;&gt;Status_Databaseserver_root</title>
<path fill="none" stroke="black" d="M310,-71.6966C310,-63.9827 310,-54.7125 310,-46.1124"/>
<polygon fill="black" stroke="black" points="313.5,-46.1043 310,-36.1043 306.5,-46.1044 313.5,-46.1043"/>
</g>
<!-- Status_SMTPserver_root -->
<g id="node4" class="node"><title>Status_SMTPserver_root</title>
<ellipse fill="none" stroke="black" cx="142" cy="-378" rx="99.2825" ry="18"/>
<text text-anchor="middle" x="142" y="-373.8" font-family="Times,serif" font-size="14.00">Status_SMTPserver_root</text>
</g>
<!-- rpea_CVE_2008_6534FTPserver_1 -->
<g id="node5" class="node"><title>rpea_CVE_2008_6534FTPserver_1</title>
<polygon fill="none" stroke="black" points="281.56,-252 64.4397,-252 64.4397,-216 281.56,-216 281.56,-252"/>
<text text-anchor="middle" x="173" y="-229.8" font-family="Times,serif" font-size="14.00">rpea_CVE_2008_6534FTPserver_1</text>
</g>
<!-- Status_SMTPserver_root&#45;&gt;rpea_CVE_2008_6534FTPserver_1 -->
<g id="edge3" class="edge"><title>Status_SMTPserver_root&#45;&gt;rpea_CVE_2008_6534FTPserver_1</title>
<path fill="none" stroke="black" d="M145.739,-359.871C151.046,-335.564 160.814,-290.819 167.103,-262.013"/>
<polygon fill="black" stroke="black" points="170.534,-262.706 169.247,-252.189 163.695,-261.213 170.534,-262.706"/>
</g>
<!-- rpea_CVE_2008_6534FTPserver_1&#45;&gt;Status_FTPserver_1_root -->
<g id="edge4" class="edge"><title>rpea_CVE_2008_6534FTPserver_1&#45;&gt;Status_FTPserver_1_root</title>
<path fill="none" stroke="black" d="M173.989,-215.697C174.43,-207.983 174.959,-198.712 175.451,-190.112"/>
<polygon fill="black" stroke="black" points="178.946,-190.288 176.023,-180.104 171.958,-189.888 178.946,-190.288"/>
</g>
<!-- Status_Malicious_root -->
<g id="node6" class="node"><title>Status_Malicious_root</title>
<ellipse fill="#e5e5e5" stroke="#e5e5e5" cx="204" cy="-1026" rx="90.2791" ry="18"/>
<text text-anchor="middle" x="204" y="-1021.8" font-family="Times,serif" font-size="14.00">Status_Malicious_root</text>
</g>
<!-- Status_Malicious_root&#45;&gt;rpea_CVE_2008_6534FTPserver_1 -->
<g id="edge20" class="edge"><title>Status_Malicious_root&#45;&gt;rpea_CVE_2008_6534FTPserver_1</title>
<path fill="none" stroke="black" d="M147.986,-1011.82C87.5942,-993.88 0,-955.388 0,-883 0,-883 0,-883 0,-377 0,-317.133 62.662,-277.893 112.561,-256.136"/>
<polygon fill="black" stroke="black" points="114.174,-259.255 122.03,-252.146 111.456,-252.804 114.174,-259.255"/>
</g>
<!-- rpea_CVE_2014_0133SMTPserver -->
<g id="node7" class="node"><title>rpea_CVE_2014_0133SMTPserver</title>
<polygon fill="none" stroke="black" points="243.397,-540 28.6029,-540 28.6029,-504 243.397,-504 243.397,-540"/>
<text text-anchor="middle" x="136" y="-517.8" font-family="Times,serif" font-size="14.00">rpea_CVE_2014_0133SMTPserver</text>
</g>
<!-- Status_Malicious_root&#45;&gt;rpea_CVE_2014_0133SMTPserver -->
<g id="edge5" class="edge"><title>Status_Malicious_root&#45;&gt;rpea_CVE_2014_0133SMTPserver</title>
<path fill="none" stroke="black" d="M184.885,-1008.11C175.12,-998.471 163.878,-985.611 157,-972 138.758,-935.9 138,-923.447 138,-883 138,-883 138,-883 138,-665 138,-624.992 137.196,-578.65 136.608,-550.078"/>
<polygon fill="black" stroke="black" points="140.107,-549.972 136.395,-540.048 133.108,-550.12 140.107,-549.972"/>
</g>
<!-- rpea_CVE_2007_3039DNSserver -->
<g id="node13" class="node"><title>rpea_CVE_2007_3039DNSserver</title>
<polygon fill="none" stroke="black" points="373.472,-972 166.528,-972 166.528,-936 373.472,-936 373.472,-972"/>
<text text-anchor="middle" x="270" y="-949.8" font-family="Times,serif" font-size="14.00">rpea_CVE_2007_3039DNSserver</text>
</g>
<!-- Status_Malicious_root&#45;&gt;rpea_CVE_2007_3039DNSserver -->
<g id="edge12" class="edge"><title>Status_Malicious_root&#45;&gt;rpea_CVE_2007_3039DNSserver</title>
<path fill="none" stroke="black" d="M219.977,-1008.05C227.964,-999.583 237.785,-989.168 246.603,-979.815"/>
<polygon fill="black" stroke="black" points="249.398,-981.952 253.712,-972.275 244.305,-977.15 249.398,-981.952"/>
</g>
<!-- rpea_CVE_2010_2730Webserver -->
<g id="node17" class="node"><title>rpea_CVE_2010_2730Webserver</title>
<polygon fill="none" stroke="black" points="541.953,-540 338.047,-540 338.047,-504 541.953,-504 541.953,-540"/>
<text text-anchor="middle" x="440" y="-517.8" font-family="Times,serif" font-size="14.00">rpea_CVE_2010_2730Webserver</text>
</g>
<!-- Status_Malicious_root&#45;&gt;rpea_CVE_2010_2730Webserver -->
<g id="edge17" class="edge"><title>Status_Malicious_root&#45;&gt;rpea_CVE_2010_2730Webserver</title>
<path fill="none" stroke="black" d="M281.669,-1016.73C315.805,-1009.62 354.332,-996.443 382,-972 414.365,-943.407 421,-926.187 421,-883 421,-883 421,-883 421,-665 421,-624.86 428.551,-578.897 434.132,-550.405"/>
<polygon fill="black" stroke="black" points="437.606,-550.883 436.155,-540.388 430.745,-549.498 437.606,-550.883"/>
</g>
<!-- rpea_CVE_2014_0133SMTPserver&#45;&gt;Status_SMTPserver_root -->
<g id="edge6" class="edge"><title>rpea_CVE_2014_0133SMTPserver&#45;&gt;Status_SMTPserver_root</title>
<path fill="none" stroke="black" d="M136.724,-503.871C137.746,-479.67 139.625,-435.211 140.843,-406.393"/>
<polygon fill="black" stroke="black" points="144.348,-406.328 141.274,-396.189 137.355,-406.033 144.348,-406.328"/>
</g>
<!-- Status_User_1_root -->
<g id="node8" class="node"><title>Status_User_1_root</title>
<ellipse fill="none" stroke="black" cx="272" cy="-594" rx="80.0375" ry="18"/>
<text text-anchor="middle" x="272" y="-589.8" font-family="Times,serif" font-size="14.00">Status_User_1_root</text>
</g>
<!-- Status_User_1_root&#45;&gt;rpea_CVE_2014_2408Databaseserver -->
<g id="edge23" class="edge"><title>Status_User_1_root&#45;&gt;rpea_CVE_2014_2408Databaseserver</title>
<path fill="none" stroke="black" d="M279.69,-575.907C290.794,-549.623 310,-497.447 310,-451 310,-451 310,-451 310,-233 310,-192.996 310,-146.653 310,-118.08"/>
<polygon fill="black" stroke="black" points="313.5,-118.049 310,-108.049 306.5,-118.049 313.5,-118.049"/>
</g>
<!-- Status_User_1_root&#45;&gt;rpea_CVE_2008_6534FTPserver_1 -->
<g id="edge21" class="edge"><title>Status_User_1_root&#45;&gt;rpea_CVE_2008_6534FTPserver_1</title>
<path fill="none" stroke="black" d="M272,-575.951C272,-549.292 272,-496.115 272,-451 272,-451 272,-451 272,-377 272,-328.378 232.458,-284.497 203.355,-258.784"/>
<polygon fill="black" stroke="black" points="205.336,-255.873 195.465,-252.025 200.782,-261.189 205.336,-255.873"/>
</g>
<!-- Status_User_1_root&#45;&gt;rpea_CVE_2014_0133SMTPserver -->
<g id="edge7" class="edge"><title>Status_User_1_root&#45;&gt;rpea_CVE_2014_0133SMTPserver</title>
<path fill="none" stroke="black" d="M241.479,-577.291C222.871,-567.713 198.817,-555.332 178.379,-544.813"/>
<polygon fill="black" stroke="black" points="179.769,-541.592 169.276,-540.127 176.566,-547.816 179.769,-541.592"/>
</g>
<!-- Status_User_1_root&#45;&gt;rpea_CVE_2010_2730Webserver -->
<g id="edge19" class="edge"><title>Status_User_1_root&#45;&gt;rpea_CVE_2010_2730Webserver</title>
<path fill="none" stroke="black" d="M308.453,-577.811C332.261,-567.891 363.667,-554.805 389.822,-543.908"/>
<polygon fill="black" stroke="black" points="391.312,-547.079 399.196,-540.002 388.619,-540.617 391.312,-547.079"/>
</g>
<!-- Status_User_3_root -->
<g id="node9" class="node"><title>Status_User_3_root</title>
<ellipse fill="#e5e5e5" stroke="#e5e5e5" cx="271" cy="-738" rx="80.0375" ry="18"/>
<text text-anchor="middle" x="271" y="-733.8" font-family="Times,serif" font-size="14.00">Status_User_3_root</text>
</g>
<!-- rpea_CVE_2014_2928User_1 -->
<g id="node10" class="node"><title>rpea_CVE_2014_2928User_1</title>
<polygon fill="none" stroke="black" points="363.145,-684 178.855,-684 178.855,-648 363.145,-648 363.145,-684"/>
<text text-anchor="middle" x="271" y="-661.8" font-family="Times,serif" font-size="14.00">rpea_CVE_2014_2928User_1</text>
</g>
<!-- Status_User_3_root&#45;&gt;rpea_CVE_2014_2928User_1 -->
<g id="edge8" class="edge"><title>Status_User_3_root&#45;&gt;rpea_CVE_2014_2928User_1</title>
<path fill="none" stroke="black" d="M271,-719.697C271,-711.983 271,-702.712 271,-694.112"/>
<polygon fill="black" stroke="black" points="274.5,-694.104 271,-684.104 267.5,-694.104 274.5,-694.104"/>
</g>
<!-- rpea_CVE_2014_2928User_1&#45;&gt;Status_User_1_root -->
<g id="edge9" class="edge"><title>rpea_CVE_2014_2928User_1&#45;&gt;Status_User_1_root</title>
<path fill="none" stroke="black" d="M271.247,-647.697C271.357,-639.983 271.49,-630.712 271.613,-622.112"/>
<polygon fill="black" stroke="black" points="275.112,-622.153 271.756,-612.104 268.113,-622.053 275.112,-622.153"/>
</g>
<!-- Status_DNSserver_root -->
<g id="node11" class="node"><title>Status_DNSserver_root</title>
<ellipse fill="none" stroke="black" cx="270" cy="-882" rx="94.1667" ry="18"/>
<text text-anchor="middle" x="270" y="-877.8" font-family="Times,serif" font-size="14.00">Status_DNSserver_root</text>
</g>
<!-- rpea_CVE_2009_3796User_3 -->
<g id="node12" class="node"><title>rpea_CVE_2009_3796User_3</title>
<polygon fill="none" stroke="black" points="362.145,-828 177.855,-828 177.855,-792 362.145,-792 362.145,-828"/>
<text text-anchor="middle" x="270" y="-805.8" font-family="Times,serif" font-size="14.00">rpea_CVE_2009_3796User_3</text>
</g>
<!-- Status_DNSserver_root&#45;&gt;rpea_CVE_2009_3796User_3 -->
<g id="edge10" class="edge"><title>Status_DNSserver_root&#45;&gt;rpea_CVE_2009_3796User_3</title>
<path fill="none" stroke="black" d="M270,-863.697C270,-855.983 270,-846.712 270,-838.112"/>
<polygon fill="black" stroke="black" points="273.5,-838.104 270,-828.104 266.5,-838.104 273.5,-838.104"/>
</g>
<!-- rpea_CVE_2009_3796User_3&#45;&gt;Status_User_3_root -->
<g id="edge11" class="edge"><title>rpea_CVE_2009_3796User_3&#45;&gt;Status_User_3_root</title>
<path fill="none" stroke="black" d="M270.247,-791.697C270.357,-783.983 270.49,-774.712 270.613,-766.112"/>
<polygon fill="black" stroke="black" points="274.112,-766.153 270.756,-756.104 267.113,-766.053 274.112,-766.153"/>
</g>
<!-- rpea_CVE_2007_3039DNSserver&#45;&gt;Status_DNSserver_root -->
<g id="edge13" class="edge"><title>rpea_CVE_2007_3039DNSserver&#45;&gt;Status_DNSserver_root</title>
<path fill="none" stroke="black" d="M270,-935.697C270,-927.983 270,-918.712 270,-910.112"/>
<polygon fill="black" stroke="black" points="273.5,-910.104 270,-900.104 266.5,-910.104 273.5,-910.104"/>
</g>
<!-- Status_Webserver_root -->
<g id="node14" class="node"><title>Status_Webserver_root</title>
<ellipse fill="none" stroke="black" cx="430" cy="-306" rx="92.115" ry="18"/>
<text text-anchor="middle" x="430" y="-301.8" font-family="Times,serif" font-size="14.00">Status_Webserver_root</text>
</g>
<!-- Status_Webserver_root&#45;&gt;rpea_CVE_2014_2408Databaseserver -->
<g id="edge22" class="edge"><title>Status_Webserver_root&#45;&gt;rpea_CVE_2014_2408Databaseserver</title>
<path fill="none" stroke="black" d="M420.383,-287.849C399.406,-250.44 349.433,-161.322 324.568,-116.98"/>
<polygon fill="black" stroke="black" points="327.607,-115.243 319.663,-108.232 321.501,-118.667 327.607,-115.243"/>
</g>
<!-- Status_Webserver_root&#45;&gt;rpea_CVE_2008_6534FTPserver_1 -->
<g id="edge14" class="edge"><title>Status_Webserver_root&#45;&gt;rpea_CVE_2008_6534FTPserver_1</title>
<path fill="none" stroke="black" d="M378.61,-291.003C340.423,-280.602 287.818,-266.273 245.378,-254.714"/>
<polygon fill="black" stroke="black" points="246.226,-251.317 235.657,-252.066 244.386,-258.071 246.226,-251.317"/>
</g>
<!-- Status_Webserver_user -->
<g id="node15" class="node"><title>Status_Webserver_user</title>
<ellipse fill="none" stroke="black" cx="440" cy="-450" rx="92.3472" ry="18"/>
<text text-anchor="middle" x="440" y="-445.8" font-family="Times,serif" font-size="14.00">Status_Webserver_user</text>
</g>
<!-- lpea_CVE_2003_0542Webserver -->
<g id="node16" class="node"><title>lpea_CVE_2003_0542Webserver</title>
<polygon fill="none" stroke="black" points="541.374,-396 338.626,-396 338.626,-360 541.374,-360 541.374,-396"/>
<text text-anchor="middle" x="440" y="-373.8" font-family="Times,serif" font-size="14.00">lpea_CVE_2003_0542Webserver</text>
</g>
<!-- Status_Webserver_user&#45;&gt;lpea_CVE_2003_0542Webserver -->
<g id="edge15" class="edge"><title>Status_Webserver_user&#45;&gt;lpea_CVE_2003_0542Webserver</title>
<path fill="none" stroke="black" d="M440,-431.697C440,-423.983 440,-414.712 440,-406.112"/>
<polygon fill="black" stroke="black" points="443.5,-406.104 440,-396.104 436.5,-406.104 443.5,-406.104"/>
</g>
<!-- lpea_CVE_2003_0542Webserver&#45;&gt;Status_Webserver_root -->
<g id="edge16" class="edge"><title>lpea_CVE_2003_0542Webserver&#45;&gt;Status_Webserver_root</title>
<path fill="none" stroke="black" d="M437.528,-359.697C436.426,-351.983 435.102,-342.712 433.873,-334.112"/>
<polygon fill="black" stroke="black" points="437.323,-333.509 432.443,-324.104 430.393,-334.499 437.323,-333.509"/>
</g>
<!-- rpea_CVE_2010_2730Webserver&#45;&gt;Status_Webserver_user -->
<g id="edge18" class="edge"><title>rpea_CVE_2010_2730Webserver&#45;&gt;Status_Webserver_user</title>
<path fill="none" stroke="black" d="M440,-503.697C440,-495.983 440,-486.712 440,-478.112"/>
<polygon fill="black" stroke="black" points="443.5,-478.104 440,-468.104 436.5,-478.104 443.5,-478.104"/>
</g>
</g>
</svg>
