<?xml version="1.0" encoding="UTF-8" standalone="no"?>
<!DOCTYPE svg PUBLIC "-//W3C//DTD SVG 1.1//EN"
 "http://www.w3.org/Graphics/SVG/1.1/DTD/svg11.dtd">
<!-- Generated by graphviz version 2.36.0 (20140111.2315)
 -->
<!-- Title: G Pages: 1 -->
<svg width="720pt" height="326pt"
 viewBox="0.00 0.00 720.00 325.51" xmlns="http://www.w3.org/2000/svg" xmlns:xlink="http://www.w3.org/1999/xlink">
<g id="graph0" class="graph" transform="scale(0.309417 0.309417) rotate(0) translate(4 1048)">
<title>G</title>
<polygon fill="white" stroke="none" points="-4,4 -4,-1048 2322.96,-1048 2322.96,4 -4,4"/>
<!-- HsDatabaseserver -->
<g id="node1" class="node"><title>HsDatabaseserver</title>
<ellipse fill="none" stroke="black" cx="1827" cy="-162" rx="73.4188" ry="18"/>
<text text-anchor="middle" x="1827" y="-157.8" font-family="Times,serif" font-size="14.00">HsDatabaseserver</text>
</g>
<!-- rpea_CVE_2014_2408_FTPserver_1_Databaseserver -->
<g id="node5" class="node"><title>rpea_CVE_2014_2408_FTPserver_1_Databaseserver</title>
<polygon fill="none" stroke="black" points="1593.19,-108 1276.81,-108 1276.81,-72 1593.19,-72 1593.19,-108"/>
<text text-anchor="middle" x="1435" y="-85.8" font-family="Times,serif" font-size="14.00">rpea_CVE_2014_2408_FTPserver_1_Databaseserver</text>
</g>
<!-- HsDatabaseserver&#45;&gt;rpea_CVE_2014_2408_FTPserver_1_Databaseserver -->
<g id="edge1" class="edge"><title>HsDatabaseserver&#45;&gt;rpea_CVE_2014_2408_FTPserver_1_Databaseserver</title>
<path fill="none" stroke="black" d="M1773.03,-149.683C1763.37,-147.734 1753.4,-145.768 1744,-144 1679.66,-131.895 1607.55,-119.464 1549.19,-109.686"/>
<polygon fill="black" stroke="black" points="1549.65,-106.214 1539.21,-108.016 1548.49,-113.118 1549.65,-106.214"/>
</g>
<!-- rpea_CVE_2014_2408_Webserver_Databaseserver -->
<g id="node50" class="node"><title>rpea_CVE_2014_2408_Webserver_Databaseserver</title>
<polygon fill="none" stroke="black" points="2219.08,-108 1914.92,-108 1914.92,-72 2219.08,-72 2219.08,-108"/>
<text text-anchor="middle" x="2067" y="-85.8" font-family="Times,serif" font-size="14.00">rpea_CVE_2014_2408_Webserver_Databaseserver</text>
</g>
<!-- HsDatabaseserver&#45;&gt;rpea_CVE_2014_2408_Webserver_Databaseserver -->
<g id="edge65" class="edge"><title>HsDatabaseserver&#45;&gt;rpea_CVE_2014_2408_Webserver_Databaseserver</title>
<path fill="none" stroke="black" d="M1872.42,-147.751C1908.08,-137.352 1958.29,-122.708 1998.77,-110.901"/>
<polygon fill="black" stroke="black" points="1999.95,-114.202 2008.57,-108.042 1997.99,-107.482 1999.95,-114.202"/>
</g>
<!-- rpea_CVE_2014_2408_User_1_Databaseserver -->
<g id="node52" class="node"><title>rpea_CVE_2014_2408_User_1_Databaseserver</title>
<polygon fill="none" stroke="black" points="1896.27,-108 1611.73,-108 1611.73,-72 1896.27,-72 1896.27,-108"/>
<text text-anchor="middle" x="1754" y="-85.8" font-family="Times,serif" font-size="14.00">rpea_CVE_2014_2408_User_1_Databaseserver</text>
</g>
<!-- HsDatabaseserver&#45;&gt;rpea_CVE_2014_2408_User_1_Databaseserver -->
<g id="edge70" class="edge"><title>HsDatabaseserver&#45;&gt;rpea_CVE_2014_2408_User_1_Databaseserver</title>
<path fill="none" stroke="black" d="M1809.7,-144.411C1800.63,-135.712 1789.35,-124.893 1779.31,-115.271"/>
<polygon fill="black" stroke="black" points="1781.58,-112.596 1771.94,-108.201 1776.73,-117.648 1781.58,-112.596"/>
</g>
<!-- HvDatabaseserver -->
<g id="node2" class="node"><title>HvDatabaseserver</title>
<ellipse fill="none" stroke="black" cx="1994" cy="-162" rx="74.3892" ry="18"/>
<text text-anchor="middle" x="1994" y="-157.8" font-family="Times,serif" font-size="14.00">HvDatabaseserver</text>
</g>
<!-- HvDatabaseserver&#45;&gt;rpea_CVE_2014_2408_FTPserver_1_Databaseserver -->
<g id="edge2" class="edge"><title>HvDatabaseserver&#45;&gt;rpea_CVE_2014_2408_FTPserver_1_Databaseserver</title>
<path fill="none" stroke="black" d="M1940.17,-149.507C1929.85,-147.511 1919.11,-145.574 1909,-144 1851.72,-135.086 1715.29,-120.067 1603.43,-108.289"/>
<polygon fill="black" stroke="black" points="1603.69,-104.796 1593.38,-107.231 1602.95,-111.758 1603.69,-104.796"/>
</g>
<!-- HvDatabaseserver&#45;&gt;rpea_CVE_2014_2408_Webserver_Databaseserver -->
<g id="edge66" class="edge"><title>HvDatabaseserver&#45;&gt;rpea_CVE_2014_2408_Webserver_Databaseserver</title>
<path fill="none" stroke="black" d="M2011.3,-144.411C2020.37,-135.712 2031.65,-124.893 2041.69,-115.271"/>
<polygon fill="black" stroke="black" points="2044.27,-117.648 2049.06,-108.201 2039.42,-112.596 2044.27,-117.648"/>
</g>
<!-- HvDatabaseserver&#45;&gt;rpea_CVE_2014_2408_User_1_Databaseserver -->
<g id="edge71" class="edge"><title>HvDatabaseserver&#45;&gt;rpea_CVE_2014_2408_User_1_Databaseserver</title>
<path fill="none" stroke="black" d="M1948.29,-147.669C1912.61,-137.261 1862.48,-122.639 1822.08,-110.855"/>
<polygon fill="black" stroke="black" points="1822.87,-107.442 1812.29,-108.002 1820.91,-114.162 1822.87,-107.442"/>
</g>
<!-- FTPserver_1_Databaseserver -->
<g id="node3" class="node"><title>FTPserver_1_Databaseserver</title>
<ellipse fill="none" stroke="black" cx="984" cy="-162" rx="114.337" ry="18"/>
<text text-anchor="middle" x="984" y="-157.8" font-family="Times,serif" font-size="14.00">FTPserver_1_Databaseserver</text>
</g>
<!-- FTPserver_1_Databaseserver&#45;&gt;rpea_CVE_2014_2408_FTPserver_1_Databaseserver -->
<g id="edge3" class="edge"><title>FTPserver_1_Databaseserver&#45;&gt;rpea_CVE_2014_2408_FTPserver_1_Databaseserver</title>
<path fill="none" stroke="black" d="M1062.3,-148.847C1131.97,-138.034 1234.92,-122.054 1314.98,-109.628"/>
<polygon fill="black" stroke="black" points="1315.78,-113.046 1325.12,-108.054 1314.71,-106.129 1315.78,-113.046"/>
</g>
<!-- HpFTPserver_1root -->
<g id="node4" class="node"><title>HpFTPserver_1root</title>
<ellipse fill="none" stroke="black" cx="1197" cy="-162" rx="80.27" ry="18"/>
<text text-anchor="middle" x="1197" y="-157.8" font-family="Times,serif" font-size="14.00">HpFTPserver_1root</text>
</g>
<!-- HpFTPserver_1root&#45;&gt;rpea_CVE_2014_2408_FTPserver_1_Databaseserver -->
<g id="edge4" class="edge"><title>HpFTPserver_1root&#45;&gt;rpea_CVE_2014_2408_FTPserver_1_Databaseserver</title>
<path fill="none" stroke="black" d="M1243.74,-147.254C1278.93,-136.903 1327.69,-122.56 1367.18,-110.948"/>
<polygon fill="black" stroke="black" points="1368.39,-114.239 1377,-108.059 1366.42,-107.523 1368.39,-114.239"/>
</g>
<!-- HpDatabaseserverroot -->
<g id="node6" class="node"><title>HpDatabaseserverroot</title>
<ellipse fill="tomato" stroke="tomato" cx="1754" cy="-18" rx="89.257" ry="18"/>
<text text-anchor="middle" x="1754" y="-13.8" font-family="Times,serif" font-size="14.00">HpDatabaseserverroot</text>
</g>
<!-- rpea_CVE_2014_2408_FTPserver_1_Databaseserver&#45;&gt;HpDatabaseserverroot -->
<g id="edge5" class="edge"><title>rpea_CVE_2014_2408_FTPserver_1_Databaseserver&#45;&gt;HpDatabaseserverroot</title>
<path fill="none" stroke="black" d="M1512.63,-71.9656C1565.71,-60.3181 1635.38,-45.0286 1686.22,-33.8723"/>
<polygon fill="black" stroke="black" points="1687.11,-37.2606 1696.13,-31.6985 1685.61,-30.4233 1687.11,-37.2606"/>
</g>
<!-- HsFTPserver_1 -->
<g id="node7" class="node"><title>HsFTPserver_1</title>
<ellipse fill="none" stroke="black" cx="984" cy="-306" rx="65.4301" ry="18"/>
<text text-anchor="middle" x="984" y="-301.8" font-family="Times,serif" font-size="14.00">HsFTPserver_1</text>
</g>
<!-- rpea_CVE_2008_6534_SMTPserver_FTPserver_1 -->
<g id="node11" class="node"><title>rpea_CVE_2008_6534_SMTPserver_FTPserver_1</title>
<polygon fill="none" stroke="black" points="587.14,-252 284.86,-252 284.86,-216 587.14,-216 587.14,-252"/>
<text text-anchor="middle" x="436" y="-229.8" font-family="Times,serif" font-size="14.00">rpea_CVE_2008_6534_SMTPserver_FTPserver_1</text>
</g>
<!-- HsFTPserver_1&#45;&gt;rpea_CVE_2008_6534_SMTPserver_FTPserver_1 -->
<g id="edge6" class="edge"><title>HsFTPserver_1&#45;&gt;rpea_CVE_2008_6534_SMTPserver_FTPserver_1</title>
<path fill="none" stroke="black" d="M936.949,-293.494C927.719,-291.475 918.084,-289.534 909,-288 878.507,-282.852 721.942,-265.602 597.172,-252.164"/>
<polygon fill="black" stroke="black" points="597.425,-248.671 587.108,-251.081 596.676,-255.631 597.425,-248.671"/>
</g>
<!-- rpea_CVE_2008_6534_Webserver_FTPserver_1 -->
<g id="node36" class="node"><title>rpea_CVE_2008_6534_Webserver_FTPserver_1</title>
<polygon fill="none" stroke="black" points="1491.2,-252 1200.8,-252 1200.8,-216 1491.2,-216 1491.2,-252"/>
<text text-anchor="middle" x="1346" y="-229.8" font-family="Times,serif" font-size="14.00">rpea_CVE_2008_6534_Webserver_FTPserver_1</text>
</g>
<!-- HsFTPserver_1&#45;&gt;rpea_CVE_2008_6534_Webserver_FTPserver_1 -->
<g id="edge36" class="edge"><title>HsFTPserver_1&#45;&gt;rpea_CVE_2008_6534_Webserver_FTPserver_1</title>
<path fill="none" stroke="black" d="M1032.1,-293.629C1040.71,-291.685 1049.61,-289.735 1058,-288 1117.17,-275.765 1183.48,-263.466 1237.54,-253.801"/>
<polygon fill="black" stroke="black" points="1238.26,-257.228 1247.49,-252.027 1237.03,-250.337 1238.26,-257.228"/>
</g>
<!-- rpea_CVE_2008_6534_Malicious_FTPserver_1 -->
<g id="node46" class="node"><title>rpea_CVE_2008_6534_Malicious_FTPserver_1</title>
<polygon fill="none" stroke="black" points="892.555,-252 605.445,-252 605.445,-216 892.555,-216 892.555,-252"/>
<text text-anchor="middle" x="749" y="-229.8" font-family="Times,serif" font-size="14.00">rpea_CVE_2008_6534_Malicious_FTPserver_1</text>
</g>
<!-- HsFTPserver_1&#45;&gt;rpea_CVE_2008_6534_Malicious_FTPserver_1 -->
<g id="edge55" class="edge"><title>HsFTPserver_1&#45;&gt;rpea_CVE_2008_6534_Malicious_FTPserver_1</title>
<path fill="none" stroke="black" d="M941.443,-292.324C906.496,-281.914 856.37,-266.983 816.037,-254.968"/>
<polygon fill="black" stroke="black" points="816.857,-251.561 806.274,-252.06 814.858,-258.269 816.857,-251.561"/>
</g>
<!-- rpea_CVE_2008_6534_User_1_FTPserver_1 -->
<g id="node48" class="node"><title>rpea_CVE_2008_6534_User_1_FTPserver_1</title>
<polygon fill="none" stroke="black" points="1182.39,-252 911.613,-252 911.613,-216 1182.39,-216 1182.39,-252"/>
<text text-anchor="middle" x="1047" y="-229.8" font-family="Times,serif" font-size="14.00">rpea_CVE_2008_6534_User_1_FTPserver_1</text>
</g>
<!-- HsFTPserver_1&#45;&gt;rpea_CVE_2008_6534_User_1_FTPserver_1 -->
<g id="edge60" class="edge"><title>HsFTPserver_1&#45;&gt;rpea_CVE_2008_6534_User_1_FTPserver_1</title>
<path fill="none" stroke="black" d="M998.93,-288.411C1006.55,-279.946 1015.97,-269.472 1024.46,-260.049"/>
<polygon fill="black" stroke="black" points="1027.21,-262.221 1031.3,-252.447 1022.01,-257.538 1027.21,-262.221"/>
</g>
<!-- HvFTPserver_1 -->
<g id="node8" class="node"><title>HvFTPserver_1</title>
<ellipse fill="none" stroke="black" cx="834" cy="-306" rx="66.4005" ry="18"/>
<text text-anchor="middle" x="834" y="-301.8" font-family="Times,serif" font-size="14.00">HvFTPserver_1</text>
</g>
<!-- HvFTPserver_1&#45;&gt;rpea_CVE_2008_6534_SMTPserver_FTPserver_1 -->
<g id="edge7" class="edge"><title>HvFTPserver_1&#45;&gt;rpea_CVE_2008_6534_SMTPserver_FTPserver_1</title>
<path fill="none" stroke="black" d="M779.91,-295.487C719.294,-284.826 619.501,-267.274 542.983,-253.816"/>
<polygon fill="black" stroke="black" points="543.278,-250.314 532.823,-252.029 542.066,-257.209 543.278,-250.314"/>
</g>
<!-- HvFTPserver_1&#45;&gt;rpea_CVE_2008_6534_Webserver_FTPserver_1 -->
<g id="edge37" class="edge"><title>HvFTPserver_1&#45;&gt;rpea_CVE_2008_6534_Webserver_FTPserver_1</title>
<path fill="none" stroke="black" d="M881.866,-293.384C890.849,-291.422 900.186,-289.529 909,-288 961.696,-278.857 1087.4,-263.869 1190.52,-252.16"/>
<polygon fill="black" stroke="black" points="1191.21,-255.605 1200.75,-251.002 1190.42,-248.65 1191.21,-255.605"/>
</g>
<!-- HvFTPserver_1&#45;&gt;rpea_CVE_2008_6534_Malicious_FTPserver_1 -->
<g id="edge56" class="edge"><title>HvFTPserver_1&#45;&gt;rpea_CVE_2008_6534_Malicious_FTPserver_1</title>
<path fill="none" stroke="black" d="M814.286,-288.765C803.447,-279.839 789.802,-268.601 777.792,-258.711"/>
<polygon fill="black" stroke="black" points="779.738,-255.779 769.793,-252.124 775.288,-261.183 779.738,-255.779"/>
</g>
<!-- HvFTPserver_1&#45;&gt;rpea_CVE_2008_6534_User_1_FTPserver_1 -->
<g id="edge61" class="edge"><title>HvFTPserver_1&#45;&gt;rpea_CVE_2008_6534_User_1_FTPserver_1</title>
<path fill="none" stroke="black" d="M874.565,-291.669C905.899,-281.371 949.787,-266.948 985.443,-255.23"/>
<polygon fill="black" stroke="black" points="986.857,-258.45 995.264,-252.002 984.672,-251.799 986.857,-258.45"/>
</g>
<!-- SMTPserver_FTPserver_1 -->
<g id="node9" class="node"><title>SMTPserver_FTPserver_1</title>
<ellipse fill="none" stroke="black" cx="396" cy="-306" rx="104.379" ry="18"/>
<text text-anchor="middle" x="396" y="-301.8" font-family="Times,serif" font-size="14.00">SMTPserver_FTPserver_1</text>
</g>
<!-- SMTPserver_FTPserver_1&#45;&gt;rpea_CVE_2008_6534_SMTPserver_FTPserver_1 -->
<g id="edge8" class="edge"><title>SMTPserver_FTPserver_1&#45;&gt;rpea_CVE_2008_6534_SMTPserver_FTPserver_1</title>
<path fill="none" stroke="black" d="M405.683,-288.055C410.282,-280.007 415.883,-270.205 421.014,-261.226"/>
<polygon fill="black" stroke="black" points="424.206,-262.694 426.128,-252.275 418.128,-259.221 424.206,-262.694"/>
</g>
<!-- HpSMTPserverroot -->
<g id="node10" class="node"><title>HpSMTPserverroot</title>
<ellipse fill="none" stroke="black" cx="263" cy="-450" rx="79.2995" ry="18"/>
<text text-anchor="middle" x="263" y="-445.8" font-family="Times,serif" font-size="14.00">HpSMTPserverroot</text>
</g>
<!-- HpSMTPserverroot&#45;&gt;rpea_CVE_2008_6534_SMTPserver_FTPserver_1 -->
<g id="edge9" class="edge"><title>HpSMTPserverroot&#45;&gt;rpea_CVE_2008_6534_SMTPserver_FTPserver_1</title>
<path fill="none" stroke="black" d="M259.61,-431.733C254.356,-399.599 248.088,-330.074 282,-288 293.304,-273.976 308.517,-263.65 324.996,-256.049"/>
<polygon fill="black" stroke="black" points="326.435,-259.24 334.264,-252.101 323.692,-252.8 326.435,-259.24"/>
</g>
<!-- rpea_CVE_2008_6534_SMTPserver_FTPserver_1&#45;&gt;HpFTPserver_1root -->
<g id="edge10" class="edge"><title>rpea_CVE_2008_6534_SMTPserver_FTPserver_1&#45;&gt;HpFTPserver_1root</title>
<path fill="none" stroke="black" d="M587.154,-216.795C590.127,-216.524 593.078,-216.258 596,-216 822.791,-195.969 881.203,-209.178 1107,-180 1114.46,-179.036 1122.23,-177.849 1129.95,-176.553"/>
<polygon fill="black" stroke="black" points="1130.78,-179.961 1140.03,-174.797 1129.57,-173.065 1130.78,-179.961"/>
</g>
<!-- HsSMTPserver -->
<g id="node12" class="node"><title>HsSMTPserver</title>
<ellipse fill="none" stroke="black" cx="459" cy="-594" rx="64.4597" ry="18"/>
<text text-anchor="middle" x="459" y="-589.8" font-family="Times,serif" font-size="14.00">HsSMTPserver</text>
</g>
<!-- rpea_CVE_2014_0133_Malicious_SMTPserver -->
<g id="node16" class="node"><title>rpea_CVE_2014_0133_Malicious_SMTPserver</title>
<polygon fill="none" stroke="black" points="382.392,-540 97.6081,-540 97.6081,-504 382.392,-504 382.392,-540"/>
<text text-anchor="middle" x="240" y="-517.8" font-family="Times,serif" font-size="14.00">rpea_CVE_2014_0133_Malicious_SMTPserver</text>
</g>
<!-- HsSMTPserver&#45;&gt;rpea_CVE_2014_0133_Malicious_SMTPserver -->
<g id="edge11" class="edge"><title>HsSMTPserver&#45;&gt;rpea_CVE_2014_0133_Malicious_SMTPserver</title>
<path fill="none" stroke="black" d="M418.321,-579.998C385.959,-569.654 340.11,-554.999 303.007,-543.139"/>
<polygon fill="black" stroke="black" points="303.877,-539.743 293.286,-540.032 301.745,-546.41 303.877,-539.743"/>
</g>
<!-- rpea_CVE_2014_0133_User_1_SMTPserver -->
<g id="node19" class="node"><title>rpea_CVE_2014_0133_User_1_SMTPserver</title>
<polygon fill="none" stroke="black" points="671.223,-540 400.777,-540 400.777,-504 671.223,-504 671.223,-540"/>
<text text-anchor="middle" x="536" y="-517.8" font-family="Times,serif" font-size="14.00">rpea_CVE_2014_0133_User_1_SMTPserver</text>
</g>
<!-- HsSMTPserver&#45;&gt;rpea_CVE_2014_0133_User_1_SMTPserver -->
<g id="edge16" class="edge"><title>HsSMTPserver&#45;&gt;rpea_CVE_2014_0133_User_1_SMTPserver</title>
<path fill="none" stroke="black" d="M477.248,-576.411C486.91,-567.627 498.952,-556.68 509.613,-546.988"/>
<polygon fill="black" stroke="black" points="512.034,-549.518 517.079,-540.201 507.325,-544.338 512.034,-549.518"/>
</g>
<!-- HvSMTPserver -->
<g id="node13" class="node"><title>HvSMTPserver</title>
<ellipse fill="none" stroke="black" cx="311" cy="-594" rx="65.4301" ry="18"/>
<text text-anchor="middle" x="311" y="-589.8" font-family="Times,serif" font-size="14.00">HvSMTPserver</text>
</g>
<!-- HvSMTPserver&#45;&gt;rpea_CVE_2014_0133_Malicious_SMTPserver -->
<g id="edge12" class="edge"><title>HvSMTPserver&#45;&gt;rpea_CVE_2014_0133_Malicious_SMTPserver</title>
<path fill="none" stroke="black" d="M294.174,-576.411C285.351,-567.712 274.377,-556.893 264.617,-547.271"/>
<polygon fill="black" stroke="black" points="267.025,-544.729 257.447,-540.201 262.11,-549.714 267.025,-544.729"/>
</g>
<!-- HvSMTPserver&#45;&gt;rpea_CVE_2014_0133_User_1_SMTPserver -->
<g id="edge17" class="edge"><title>HvSMTPserver&#45;&gt;rpea_CVE_2014_0133_User_1_SMTPserver</title>
<path fill="none" stroke="black" d="M352.531,-580.079C385.751,-569.744 432.925,-555.068 471.119,-543.185"/>
<polygon fill="black" stroke="black" points="472.618,-546.384 481.127,-540.072 470.539,-539.7 472.618,-546.384"/>
</g>
<!-- Malicious_SMTPserver -->
<g id="node14" class="node"><title>Malicious_SMTPserver</title>
<ellipse fill="none" stroke="black" cx="94" cy="-594" rx="94.4048" ry="18"/>
<text text-anchor="middle" x="94" y="-589.8" font-family="Times,serif" font-size="14.00">Malicious_SMTPserver</text>
</g>
<!-- Malicious_SMTPserver&#45;&gt;rpea_CVE_2014_0133_Malicious_SMTPserver -->
<g id="edge13" class="edge"><title>Malicious_SMTPserver&#45;&gt;rpea_CVE_2014_0133_Malicious_SMTPserver</title>
<path fill="none" stroke="black" d="M127.13,-577.116C147.301,-567.445 173.33,-554.965 195.308,-544.428"/>
<polygon fill="black" stroke="black" points="196.947,-547.524 204.451,-540.044 193.92,-541.212 196.947,-547.524"/>
</g>
<!-- HpMaliciousroot -->
<g id="node15" class="node"><title>HpMaliciousroot</title>
<ellipse fill="none" stroke="black" cx="1216" cy="-1026" rx="70.2949" ry="18"/>
<text text-anchor="middle" x="1216" y="-1021.8" font-family="Times,serif" font-size="14.00">HpMaliciousroot</text>
</g>
<!-- HpMaliciousroot&#45;&gt;rpea_CVE_2014_0133_Malicious_SMTPserver -->
<g id="edge14" class="edge"><title>HpMaliciousroot&#45;&gt;rpea_CVE_2014_0133_Malicious_SMTPserver</title>
<path fill="none" stroke="black" d="M1146.94,-1022.47C920.813,-1013.28 217,-977.105 217,-883 217,-883 217,-883 217,-665 217,-624.696 226.14,-578.776 232.897,-550.337"/>
<polygon fill="black" stroke="black" points="236.365,-550.888 235.346,-540.342 229.567,-549.222 236.365,-550.888"/>
</g>
<!-- rpea_CVE_2007_3039_Malicious_DNSserver -->
<g id="node33" class="node"><title>rpea_CVE_2007_3039_Malicious_DNSserver</title>
<polygon fill="none" stroke="black" points="2176.47,-972 1899.53,-972 1899.53,-936 2176.47,-936 2176.47,-972"/>
<text text-anchor="middle" x="2038" y="-949.8" font-family="Times,serif" font-size="14.00">rpea_CVE_2007_3039_Malicious_DNSserver</text>
</g>
<!-- HpMaliciousroot&#45;&gt;rpea_CVE_2007_3039_Malicious_DNSserver -->
<g id="edge34" class="edge"><title>HpMaliciousroot&#45;&gt;rpea_CVE_2007_3039_Malicious_DNSserver</title>
<path fill="none" stroke="black" d="M1283,-1020.4C1403.55,-1011.96 1664.92,-992.939 1885,-972 1886.5,-971.858 1888,-971.713 1889.51,-971.567"/>
<polygon fill="black" stroke="black" points="1889.97,-975.039 1899.58,-970.578 1889.29,-968.073 1889.97,-975.039"/>
</g>
<!-- rpea_CVE_2010_2730_Malicious_Webserver -->
<g id="node42" class="node"><title>rpea_CVE_2010_2730_Malicious_Webserver</title>
<polygon fill="none" stroke="black" points="2104.95,-540 1831.05,-540 1831.05,-504 2104.95,-504 2104.95,-540"/>
<text text-anchor="middle" x="1968" y="-517.8" font-family="Times,serif" font-size="14.00">rpea_CVE_2010_2730_Malicious_Webserver</text>
</g>
<!-- HpMaliciousroot&#45;&gt;rpea_CVE_2010_2730_Malicious_Webserver -->
<g id="edge48" class="edge"><title>HpMaliciousroot&#45;&gt;rpea_CVE_2010_2730_Malicious_Webserver</title>
<path fill="none" stroke="black" d="M1286.1,-1024.49C1455.07,-1021.39 1871,-1001.68 1871,-883 1871,-883 1871,-883 1871,-665 1871,-624.553 1867.42,-609.561 1890,-576 1898.32,-563.638 1910.58,-553.368 1922.92,-545.264"/>
<polygon fill="black" stroke="black" points="1924.77,-548.235 1931.44,-540.001 1921.09,-542.281 1924.77,-548.235"/>
</g>
<!-- HpMaliciousroot&#45;&gt;rpea_CVE_2008_6534_Malicious_FTPserver_1 -->
<g id="edge58" class="edge"><title>HpMaliciousroot&#45;&gt;rpea_CVE_2008_6534_Malicious_FTPserver_1</title>
<path fill="none" stroke="black" d="M1150.68,-1019.31C1020.04,-1006.12 739,-967.892 739,-883 739,-883 739,-883 739,-377 739,-336.897 743.018,-290.58 745.96,-262.04"/>
<polygon fill="black" stroke="black" points="749.448,-262.336 747.024,-252.022 742.487,-261.596 749.448,-262.336"/>
</g>
<!-- rpea_CVE_2014_0133_Malicious_SMTPserver&#45;&gt;HpSMTPserverroot -->
<g id="edge15" class="edge"><title>rpea_CVE_2014_0133_Malicious_SMTPserver&#45;&gt;HpSMTPserverroot</title>
<path fill="none" stroke="black" d="M245.685,-503.697C248.248,-495.898 251.333,-486.509 254.185,-477.829"/>
<polygon fill="black" stroke="black" points="257.584,-478.697 257.38,-468.104 250.933,-476.512 257.584,-478.697"/>
</g>
<!-- User_1_SMTPserver -->
<g id="node17" class="node"><title>User_1_SMTPserver</title>
<ellipse fill="none" stroke="black" cx="626" cy="-594" rx="84.1647" ry="18"/>
<text text-anchor="middle" x="626" y="-589.8" font-family="Times,serif" font-size="14.00">User_1_SMTPserver</text>
</g>
<!-- User_1_SMTPserver&#45;&gt;rpea_CVE_2014_0133_User_1_SMTPserver -->
<g id="edge18" class="edge"><title>User_1_SMTPserver&#45;&gt;rpea_CVE_2014_0133_User_1_SMTPserver</title>
<path fill="none" stroke="black" d="M604.671,-576.411C593.158,-567.456 578.756,-556.254 566.118,-546.425"/>
<polygon fill="black" stroke="black" points="568.158,-543.578 558.116,-540.201 563.86,-549.103 568.158,-543.578"/>
</g>
<!-- HpUser_1root -->
<g id="node18" class="node"><title>HpUser_1root</title>
<ellipse fill="none" stroke="black" cx="1340" cy="-594" rx="60.5525" ry="18"/>
<text text-anchor="middle" x="1340" y="-589.8" font-family="Times,serif" font-size="14.00">HpUser_1root</text>
</g>
<!-- HpUser_1root&#45;&gt;rpea_CVE_2014_0133_User_1_SMTPserver -->
<g id="edge19" class="edge"><title>HpUser_1root&#45;&gt;rpea_CVE_2014_0133_User_1_SMTPserver</title>
<path fill="none" stroke="black" d="M1282.82,-588.022C1158.62,-577.208 860.922,-551.289 681.144,-535.637"/>
<polygon fill="black" stroke="black" points="681.342,-532.141 671.077,-534.76 680.735,-539.115 681.342,-532.141"/>
</g>
<!-- rpea_CVE_2010_2730_User_1_Webserver -->
<g id="node44" class="node"><title>rpea_CVE_2010_2730_User_1_Webserver</title>
<polygon fill="none" stroke="black" points="1627.28,-540 1368.72,-540 1368.72,-504 1627.28,-504 1627.28,-540"/>
<text text-anchor="middle" x="1498" y="-517.8" font-family="Times,serif" font-size="14.00">rpea_CVE_2010_2730_User_1_Webserver</text>
</g>
<!-- HpUser_1root&#45;&gt;rpea_CVE_2010_2730_User_1_Webserver -->
<g id="edge53" class="edge"><title>HpUser_1root&#45;&gt;rpea_CVE_2010_2730_User_1_Webserver</title>
<path fill="none" stroke="black" d="M1372.35,-578.666C1394.77,-568.735 1424.99,-555.345 1450.18,-544.187"/>
<polygon fill="black" stroke="black" points="1451.83,-547.282 1459.56,-540.032 1449,-540.882 1451.83,-547.282"/>
</g>
<!-- HpUser_1root&#45;&gt;rpea_CVE_2008_6534_User_1_FTPserver_1 -->
<g id="edge63" class="edge"><title>HpUser_1root&#45;&gt;rpea_CVE_2008_6534_User_1_FTPserver_1</title>
<path fill="none" stroke="black" d="M1324.87,-576.497C1303.49,-551.383 1267,-501.173 1267,-451 1267,-451 1267,-451 1267,-377 1267,-336.458 1275.12,-317.207 1247,-288 1233.88,-274.371 1197.69,-262.984 1159.65,-254.302"/>
<polygon fill="black" stroke="black" points="1159.94,-250.782 1149.42,-252.04 1158.43,-257.617 1159.94,-250.782"/>
</g>
<!-- HpUser_1root&#45;&gt;rpea_CVE_2014_2408_User_1_Databaseserver -->
<g id="edge73" class="edge"><title>HpUser_1root&#45;&gt;rpea_CVE_2014_2408_User_1_Databaseserver</title>
<path fill="none" stroke="black" d="M1341.36,-575.88C1343.34,-557.41 1348.06,-527.491 1359,-504 1401.77,-412.119 1456.09,-415.816 1499,-324 1533.66,-249.843 1480.91,-202.664 1538,-144 1551.78,-129.844 1589.04,-118.537 1628.82,-110.064"/>
<polygon fill="black" stroke="black" points="1629.61,-113.474 1638.7,-108.025 1628.2,-106.618 1629.61,-113.474"/>
</g>
<!-- rpea_CVE_2014_0133_User_1_SMTPserver&#45;&gt;HpSMTPserverroot -->
<g id="edge20" class="edge"><title>rpea_CVE_2014_0133_User_1_SMTPserver&#45;&gt;HpSMTPserverroot</title>
<path fill="none" stroke="black" d="M469.566,-503.966C424.906,-492.514 366.519,-477.543 323.217,-466.44"/>
<polygon fill="black" stroke="black" points="323.942,-463.013 313.386,-463.92 322.204,-469.794 323.942,-463.013"/>
</g>
<!-- HsUser_1 -->
<g id="node20" class="node"><title>HsUser_1</title>
<ellipse fill="none" stroke="black" cx="1396" cy="-738" rx="45.2147" ry="18"/>
<text text-anchor="middle" x="1396" y="-733.8" font-family="Times,serif" font-size="14.00">HsUser_1</text>
</g>
<!-- rpea_CVE_2014_2928_User_3_User_1 -->
<g id="node24" class="node"><title>rpea_CVE_2014_2928_User_3_User_1</title>
<polygon fill="none" stroke="black" points="1515.47,-684 1276.53,-684 1276.53,-648 1515.47,-648 1515.47,-684"/>
<text text-anchor="middle" x="1396" y="-661.8" font-family="Times,serif" font-size="14.00">rpea_CVE_2014_2928_User_3_User_1</text>
</g>
<!-- HsUser_1&#45;&gt;rpea_CVE_2014_2928_User_3_User_1 -->
<g id="edge21" class="edge"><title>HsUser_1&#45;&gt;rpea_CVE_2014_2928_User_3_User_1</title>
<path fill="none" stroke="black" d="M1396,-719.697C1396,-711.983 1396,-702.712 1396,-694.112"/>
<polygon fill="black" stroke="black" points="1399.5,-694.104 1396,-684.104 1392.5,-694.104 1399.5,-694.104"/>
</g>
<!-- HvUser_1 -->
<g id="node21" class="node"><title>HvUser_1</title>
<ellipse fill="none" stroke="black" cx="1506" cy="-738" rx="46.1851" ry="18"/>
<text text-anchor="middle" x="1506" y="-733.8" font-family="Times,serif" font-size="14.00">HvUser_1</text>
</g>
<!-- HvUser_1&#45;&gt;rpea_CVE_2014_2928_User_3_User_1 -->
<g id="edge22" class="edge"><title>HvUser_1&#45;&gt;rpea_CVE_2014_2928_User_3_User_1</title>
<path fill="none" stroke="black" d="M1482.94,-722.326C1468.03,-712.835 1448.32,-700.293 1431.44,-689.55"/>
<polygon fill="black" stroke="black" points="1433.22,-686.538 1422.91,-684.122 1429.46,-692.443 1433.22,-686.538"/>
</g>
<!-- User_3_User_1 -->
<g id="node22" class="node"><title>User_3_User_1</title>
<ellipse fill="none" stroke="black" cx="1267" cy="-738" rx="65.4172" ry="18"/>
<text text-anchor="middle" x="1267" y="-733.8" font-family="Times,serif" font-size="14.00">User_3_User_1</text>
</g>
<!-- User_3_User_1&#45;&gt;rpea_CVE_2014_2928_User_3_User_1 -->
<g id="edge23" class="edge"><title>User_3_User_1&#45;&gt;rpea_CVE_2014_2928_User_3_User_1</title>
<path fill="none" stroke="black" d="M1295.31,-721.638C1312.98,-712.049 1336.01,-699.552 1355.59,-688.931"/>
<polygon fill="black" stroke="black" points="1357.47,-691.89 1364.59,-684.044 1354.13,-685.737 1357.47,-691.89"/>
</g>
<!-- HpUser_3root -->
<g id="node23" class="node"><title>HpUser_3root</title>
<ellipse fill="none" stroke="black" cx="1645" cy="-738" rx="60.5525" ry="18"/>
<text text-anchor="middle" x="1645" y="-733.8" font-family="Times,serif" font-size="14.00">HpUser_3root</text>
</g>
<!-- HpUser_3root&#45;&gt;rpea_CVE_2014_2928_User_3_User_1 -->
<g id="edge24" class="edge"><title>HpUser_3root&#45;&gt;rpea_CVE_2014_2928_User_3_User_1</title>
<path fill="none" stroke="black" d="M1602.76,-725.125C1565.48,-714.645 1510.39,-699.158 1466.45,-686.804"/>
<polygon fill="black" stroke="black" points="1467.25,-683.396 1456.68,-684.059 1465.36,-690.135 1467.25,-683.396"/>
</g>
<!-- rpea_CVE_2014_2928_User_3_User_1&#45;&gt;HpUser_1root -->
<g id="edge25" class="edge"><title>rpea_CVE_2014_2928_User_3_User_1&#45;&gt;HpUser_1root</title>
<path fill="none" stroke="black" d="M1382.16,-647.697C1375.34,-639.179 1367.01,-628.765 1359.56,-619.45"/>
<polygon fill="black" stroke="black" points="1362.28,-617.245 1353.3,-611.622 1356.81,-621.617 1362.28,-617.245"/>
</g>
<!-- HsUser_3 -->
<g id="node25" class="node"><title>HsUser_3</title>
<ellipse fill="none" stroke="black" cx="1673" cy="-882" rx="45.2147" ry="18"/>
<text text-anchor="middle" x="1673" y="-877.8" font-family="Times,serif" font-size="14.00">HsUser_3</text>
</g>
<!-- rpea_CVE_2009_3796_DNSserver_User_3 -->
<g id="node29" class="node"><title>rpea_CVE_2009_3796_DNSserver_User_3</title>
<polygon fill="none" stroke="black" points="1803.3,-828 1542.7,-828 1542.7,-792 1803.3,-792 1803.3,-828"/>
<text text-anchor="middle" x="1673" y="-805.8" font-family="Times,serif" font-size="14.00">rpea_CVE_2009_3796_DNSserver_User_3</text>
</g>
<!-- HsUser_3&#45;&gt;rpea_CVE_2009_3796_DNSserver_User_3 -->
<g id="edge26" class="edge"><title>HsUser_3&#45;&gt;rpea_CVE_2009_3796_DNSserver_User_3</title>
<path fill="none" stroke="black" d="M1673,-863.697C1673,-855.983 1673,-846.712 1673,-838.112"/>
<polygon fill="black" stroke="black" points="1676.5,-838.104 1673,-828.104 1669.5,-838.104 1676.5,-838.104"/>
</g>
<!-- HvUser_3 -->
<g id="node26" class="node"><title>HvUser_3</title>
<ellipse fill="none" stroke="black" cx="1783" cy="-882" rx="46.1851" ry="18"/>
<text text-anchor="middle" x="1783" y="-877.8" font-family="Times,serif" font-size="14.00">HvUser_3</text>
</g>
<!-- HvUser_3&#45;&gt;rpea_CVE_2009_3796_DNSserver_User_3 -->
<g id="edge27" class="edge"><title>HvUser_3&#45;&gt;rpea_CVE_2009_3796_DNSserver_User_3</title>
<path fill="none" stroke="black" d="M1759.94,-866.326C1745.03,-856.835 1725.32,-844.293 1708.44,-833.55"/>
<polygon fill="black" stroke="black" points="1710.22,-830.538 1699.91,-828.122 1706.46,-836.443 1710.22,-830.538"/>
</g>
<!-- DNSserver_User_3 -->
<g id="node27" class="node"><title>DNSserver_User_3</title>
<ellipse fill="none" stroke="black" cx="1530" cy="-882" rx="79.0477" ry="18"/>
<text text-anchor="middle" x="1530" y="-877.8" font-family="Times,serif" font-size="14.00">DNSserver_User_3</text>
</g>
<!-- DNSserver_User_3&#45;&gt;rpea_CVE_2009_3796_DNSserver_User_3 -->
<g id="edge28" class="edge"><title>DNSserver_User_3&#45;&gt;rpea_CVE_2009_3796_DNSserver_User_3</title>
<path fill="none" stroke="black" d="M1561.74,-865.465C1581.54,-855.773 1607.3,-843.161 1629.05,-832.514"/>
<polygon fill="black" stroke="black" points="1630.65,-835.626 1638.1,-828.086 1627.57,-829.339 1630.65,-835.626"/>
</g>
<!-- HpDNSserverroot -->
<g id="node28" class="node"><title>HpDNSserverroot</title>
<ellipse fill="none" stroke="black" cx="2006" cy="-882" rx="74.1829" ry="18"/>
<text text-anchor="middle" x="2006" y="-877.8" font-family="Times,serif" font-size="14.00">HpDNSserverroot</text>
</g>
<!-- HpDNSserverroot&#45;&gt;rpea_CVE_2009_3796_DNSserver_User_3 -->
<g id="edge29" class="edge"><title>HpDNSserverroot&#45;&gt;rpea_CVE_2009_3796_DNSserver_User_3</title>
<path fill="none" stroke="black" d="M1951.76,-869.597C1900.95,-858.918 1824.05,-842.753 1763.88,-830.105"/>
<polygon fill="black" stroke="black" points="1764.5,-826.658 1754,-828.026 1763.06,-833.509 1764.5,-826.658"/>
</g>
<!-- rpea_CVE_2009_3796_DNSserver_User_3&#45;&gt;HpUser_3root -->
<g id="edge30" class="edge"><title>rpea_CVE_2009_3796_DNSserver_User_3&#45;&gt;HpUser_3root</title>
<path fill="none" stroke="black" d="M1666.08,-791.697C1662.93,-783.813 1659.12,-774.304 1655.62,-765.546"/>
<polygon fill="black" stroke="black" points="1658.81,-764.089 1651.84,-756.104 1652.31,-766.689 1658.81,-764.089"/>
</g>
<!-- HsDNSserver -->
<g id="node30" class="node"><title>HsDNSserver</title>
<ellipse fill="none" stroke="black" cx="2038" cy="-1026" rx="59.3447" ry="18"/>
<text text-anchor="middle" x="2038" y="-1021.8" font-family="Times,serif" font-size="14.00">HsDNSserver</text>
</g>
<!-- HsDNSserver&#45;&gt;rpea_CVE_2007_3039_Malicious_DNSserver -->
<g id="edge31" class="edge"><title>HsDNSserver&#45;&gt;rpea_CVE_2007_3039_Malicious_DNSserver</title>
<path fill="none" stroke="black" d="M2038,-1007.7C2038,-999.983 2038,-990.712 2038,-982.112"/>
<polygon fill="black" stroke="black" points="2041.5,-982.104 2038,-972.104 2034.5,-982.104 2041.5,-982.104"/>
</g>
<!-- HvDNSserver -->
<g id="node31" class="node"><title>HvDNSserver</title>
<ellipse fill="none" stroke="black" cx="2175" cy="-1026" rx="60.3149" ry="18"/>
<text text-anchor="middle" x="2175" y="-1021.8" font-family="Times,serif" font-size="14.00">HvDNSserver</text>
</g>
<!-- HvDNSserver&#45;&gt;rpea_CVE_2007_3039_Malicious_DNSserver -->
<g id="edge32" class="edge"><title>HvDNSserver&#45;&gt;rpea_CVE_2007_3039_Malicious_DNSserver</title>
<path fill="none" stroke="black" d="M2145.95,-1010.15C2126.93,-1000.44 2101.75,-987.572 2080.49,-976.713"/>
<polygon fill="black" stroke="black" points="2081.85,-973.473 2071.35,-972.04 2078.66,-979.707 2081.85,-973.473"/>
</g>
<!-- Malicious_DNSserver -->
<g id="node32" class="node"><title>Malicious_DNSserver</title>
<ellipse fill="none" stroke="black" cx="1872" cy="-1026" rx="89.2894" ry="18"/>
<text text-anchor="middle" x="1872" y="-1021.8" font-family="Times,serif" font-size="14.00">Malicious_DNSserver</text>
</g>
<!-- Malicious_DNSserver&#45;&gt;rpea_CVE_2007_3039_Malicious_DNSserver -->
<g id="edge33" class="edge"><title>Malicious_DNSserver&#45;&gt;rpea_CVE_2007_3039_Malicious_DNSserver</title>
<path fill="none" stroke="black" d="M1908.84,-1009.46C1932.13,-999.643 1962.54,-986.823 1987.99,-976.088"/>
<polygon fill="black" stroke="black" points="1989.63,-979.197 1997.48,-972.086 1986.91,-972.747 1989.63,-979.197"/>
</g>
<!-- rpea_CVE_2007_3039_Malicious_DNSserver&#45;&gt;HpDNSserverroot -->
<g id="edge35" class="edge"><title>rpea_CVE_2007_3039_Malicious_DNSserver&#45;&gt;HpDNSserverroot</title>
<path fill="none" stroke="black" d="M2030.09,-935.697C2026.45,-927.728 2022.05,-918.1 2018.01,-909.264"/>
<polygon fill="black" stroke="black" points="2021.16,-907.744 2013.82,-900.104 2014.79,-910.654 2021.16,-907.744"/>
</g>
<!-- Webserver_FTPserver_1 -->
<g id="node34" class="node"><title>Webserver_FTPserver_1</title>
<ellipse fill="none" stroke="black" cx="1393" cy="-306" rx="97.2123" ry="18"/>
<text text-anchor="middle" x="1393" y="-301.8" font-family="Times,serif" font-size="14.00">Webserver_FTPserver_1</text>
</g>
<!-- Webserver_FTPserver_1&#45;&gt;rpea_CVE_2008_6534_Webserver_FTPserver_1 -->
<g id="edge38" class="edge"><title>Webserver_FTPserver_1&#45;&gt;rpea_CVE_2008_6534_Webserver_FTPserver_1</title>
<path fill="none" stroke="black" d="M1381.62,-288.055C1376.11,-279.837 1369.36,-269.791 1363.23,-260.66"/>
<polygon fill="black" stroke="black" points="1366.08,-258.626 1357.6,-252.275 1360.27,-262.529 1366.08,-258.626"/>
</g>
<!-- HpWebserverroot -->
<g id="node35" class="node"><title>HpWebserverroot</title>
<ellipse fill="none" stroke="black" cx="1739" cy="-306" rx="72.1328" ry="18"/>
<text text-anchor="middle" x="1739" y="-301.8" font-family="Times,serif" font-size="14.00">HpWebserverroot</text>
</g>
<!-- HpWebserverroot&#45;&gt;rpea_CVE_2008_6534_Webserver_FTPserver_1 -->
<g id="edge39" class="edge"><title>HpWebserverroot&#45;&gt;rpea_CVE_2008_6534_Webserver_FTPserver_1</title>
<path fill="none" stroke="black" d="M1681.85,-294.821C1621.77,-284.12 1525.88,-267.04 1451.91,-253.865"/>
<polygon fill="black" stroke="black" points="1452.08,-250.34 1441.63,-252.032 1450.86,-257.232 1452.08,-250.34"/>
</g>
<!-- HpWebserverroot&#45;&gt;rpea_CVE_2014_2408_Webserver_Databaseserver -->
<g id="edge68" class="edge"><title>HpWebserverroot&#45;&gt;rpea_CVE_2014_2408_Webserver_Databaseserver</title>
<path fill="none" stroke="black" d="M1807.88,-300.348C1945.35,-289.479 2245.89,-257.241 2308,-180 2341.16,-138.759 2291.81,-116.628 2229.32,-104.753"/>
<polygon fill="black" stroke="black" points="2229.64,-101.256 2219.18,-102.933 2228.41,-108.146 2229.64,-101.256"/>
</g>
<!-- rpea_CVE_2008_6534_Webserver_FTPserver_1&#45;&gt;HpFTPserver_1root -->
<g id="edge40" class="edge"><title>rpea_CVE_2008_6534_Webserver_FTPserver_1&#45;&gt;HpFTPserver_1root</title>
<path fill="none" stroke="black" d="M1309.55,-215.876C1288.29,-205.889 1261.38,-193.247 1239.21,-182.829"/>
<polygon fill="black" stroke="black" points="1240.56,-179.599 1230.02,-178.514 1237.59,-185.934 1240.56,-179.599"/>
</g>
<!-- HsWebserver -->
<g id="node37" class="node"><title>HsWebserver</title>
<ellipse fill="none" stroke="black" cx="1785" cy="-594" rx="57.2922" ry="18"/>
<text text-anchor="middle" x="1785" y="-589.8" font-family="Times,serif" font-size="14.00">HsWebserver</text>
</g>
<!-- lpea_CVE_2003_0542Webserver -->
<g id="node40" class="node"><title>lpea_CVE_2003_0542Webserver</title>
<polygon fill="none" stroke="black" points="1840.37,-396 1637.63,-396 1637.63,-360 1840.37,-360 1840.37,-396"/>
<text text-anchor="middle" x="1739" y="-373.8" font-family="Times,serif" font-size="14.00">lpea_CVE_2003_0542Webserver</text>
</g>
<!-- HsWebserver&#45;&gt;lpea_CVE_2003_0542Webserver -->
<g id="edge41" class="edge"><title>HsWebserver&#45;&gt;lpea_CVE_2003_0542Webserver</title>
<path fill="none" stroke="black" d="M1791.69,-576.06C1805.46,-540.014 1834.59,-456.967 1821,-432 1814.09,-419.301 1802.68,-409.181 1790.54,-401.33"/>
<polygon fill="black" stroke="black" points="1792,-398.128 1781.62,-396.011 1788.41,-404.14 1792,-398.128"/>
</g>
<!-- HsWebserver&#45;&gt;rpea_CVE_2010_2730_Malicious_Webserver -->
<g id="edge45" class="edge"><title>HsWebserver&#45;&gt;rpea_CVE_2010_2730_Malicious_Webserver</title>
<path fill="none" stroke="black" d="M1819.85,-579.669C1846.43,-569.503 1883.51,-555.317 1913.93,-543.682"/>
<polygon fill="black" stroke="black" points="1915.46,-546.844 1923.55,-540.002 1912.96,-540.306 1915.46,-546.844"/>
</g>
<!-- HsWebserver&#45;&gt;rpea_CVE_2010_2730_User_1_Webserver -->
<g id="edge50" class="edge"><title>HsWebserver&#45;&gt;rpea_CVE_2010_2730_User_1_Webserver</title>
<path fill="none" stroke="black" d="M1742.13,-582.04C1734.11,-580.015 1725.81,-577.93 1718,-576 1672.28,-564.692 1621.13,-552.352 1579.67,-542.426"/>
<polygon fill="black" stroke="black" points="1580.43,-539.009 1569.89,-540.087 1578.8,-545.817 1580.43,-539.009"/>
</g>
<!-- HvWebserver -->
<g id="node38" class="node"><title>HvWebserver</title>
<ellipse fill="none" stroke="black" cx="1651" cy="-594" rx="58.2625" ry="18"/>
<text text-anchor="middle" x="1651" y="-589.8" font-family="Times,serif" font-size="14.00">HvWebserver</text>
</g>
<!-- HvWebserver&#45;&gt;lpea_CVE_2003_0542Webserver -->
<g id="edge42" class="edge"><title>HvWebserver&#45;&gt;lpea_CVE_2003_0542Webserver</title>
<path fill="none" stroke="black" d="M1646.75,-575.626C1640.15,-544.505 1630.73,-478.196 1657,-432 1664.15,-419.432 1675.64,-409.355 1687.78,-401.505"/>
<polygon fill="black" stroke="black" points="1689.9,-404.315 1696.68,-396.178 1686.3,-398.308 1689.9,-404.315"/>
</g>
<!-- HvWebserver&#45;&gt;rpea_CVE_2010_2730_Malicious_Webserver -->
<g id="edge46" class="edge"><title>HvWebserver&#45;&gt;rpea_CVE_2010_2730_Malicious_Webserver</title>
<path fill="none" stroke="black" d="M1694.19,-581.775C1702.1,-579.795 1710.29,-577.796 1718,-576 1769.34,-564.051 1826.86,-551.778 1873.78,-542.055"/>
<polygon fill="black" stroke="black" points="1874.54,-545.472 1883.63,-540.021 1873.13,-538.617 1874.54,-545.472"/>
</g>
<!-- HvWebserver&#45;&gt;rpea_CVE_2010_2730_User_1_Webserver -->
<g id="edge51" class="edge"><title>HvWebserver&#45;&gt;rpea_CVE_2010_2730_User_1_Webserver</title>
<path fill="none" stroke="black" d="M1619.67,-578.666C1598.06,-568.778 1568.96,-555.463 1544.63,-544.335"/>
<polygon fill="black" stroke="black" points="1545.78,-541.009 1535.23,-540.032 1542.86,-547.375 1545.78,-541.009"/>
</g>
<!-- HpWebserveruser -->
<g id="node39" class="node"><title>HpWebserveruser</title>
<ellipse fill="none" stroke="black" cx="1739" cy="-450" rx="73.363" ry="18"/>
<text text-anchor="middle" x="1739" y="-445.8" font-family="Times,serif" font-size="14.00">HpWebserveruser</text>
</g>
<!-- HpWebserveruser&#45;&gt;lpea_CVE_2003_0542Webserver -->
<g id="edge43" class="edge"><title>HpWebserveruser&#45;&gt;lpea_CVE_2003_0542Webserver</title>
<path fill="none" stroke="black" d="M1739,-431.697C1739,-423.983 1739,-414.712 1739,-406.112"/>
<polygon fill="black" stroke="black" points="1742.5,-406.104 1739,-396.104 1735.5,-406.104 1742.5,-406.104"/>
</g>
<!-- lpea_CVE_2003_0542Webserver&#45;&gt;HpWebserverroot -->
<g id="edge44" class="edge"><title>lpea_CVE_2003_0542Webserver&#45;&gt;HpWebserverroot</title>
<path fill="none" stroke="black" d="M1739,-359.697C1739,-351.983 1739,-342.712 1739,-334.112"/>
<polygon fill="black" stroke="black" points="1742.5,-334.104 1739,-324.104 1735.5,-334.104 1742.5,-334.104"/>
</g>
<!-- Malicious_Webserver -->
<g id="node41" class="node"><title>Malicious_Webserver</title>
<ellipse fill="none" stroke="black" cx="1986" cy="-594" rx="87.2372" ry="18"/>
<text text-anchor="middle" x="1986" y="-589.8" font-family="Times,serif" font-size="14.00">Malicious_Webserver</text>
</g>
<!-- Malicious_Webserver&#45;&gt;rpea_CVE_2010_2730_Malicious_Webserver -->
<g id="edge47" class="edge"><title>Malicious_Webserver&#45;&gt;rpea_CVE_2010_2730_Malicious_Webserver</title>
<path fill="none" stroke="black" d="M1981.55,-575.697C1979.55,-567.898 1977.13,-558.509 1974.9,-549.829"/>
<polygon fill="black" stroke="black" points="1978.28,-548.918 1972.4,-540.104 1971.5,-550.661 1978.28,-548.918"/>
</g>
<!-- rpea_CVE_2010_2730_Malicious_Webserver&#45;&gt;HpWebserveruser -->
<g id="edge49" class="edge"><title>rpea_CVE_2010_2730_Malicious_Webserver&#45;&gt;HpWebserveruser</title>
<path fill="none" stroke="black" d="M1912.27,-503.966C1875.97,-492.868 1828.85,-478.465 1792.91,-467.48"/>
<polygon fill="black" stroke="black" points="1793.68,-464.054 1783.09,-464.478 1791.63,-470.748 1793.68,-464.054"/>
</g>
<!-- User_1_Webserver -->
<g id="node43" class="node"><title>User_1_Webserver</title>
<ellipse fill="none" stroke="black" cx="1497" cy="-594" rx="77.4949" ry="18"/>
<text text-anchor="middle" x="1497" y="-589.8" font-family="Times,serif" font-size="14.00">User_1_Webserver</text>
</g>
<!-- User_1_Webserver&#45;&gt;rpea_CVE_2010_2730_User_1_Webserver -->
<g id="edge52" class="edge"><title>User_1_Webserver&#45;&gt;rpea_CVE_2010_2730_User_1_Webserver</title>
<path fill="none" stroke="black" d="M1497.25,-575.697C1497.36,-567.983 1497.49,-558.712 1497.61,-550.112"/>
<polygon fill="black" stroke="black" points="1501.11,-550.153 1497.76,-540.104 1494.11,-550.053 1501.11,-550.153"/>
</g>
<!-- rpea_CVE_2010_2730_User_1_Webserver&#45;&gt;HpWebserveruser -->
<g id="edge54" class="edge"><title>rpea_CVE_2010_2730_User_1_Webserver&#45;&gt;HpWebserveruser</title>
<path fill="none" stroke="black" d="M1556.65,-503.966C1595.4,-492.709 1645.86,-478.052 1683.88,-467.01"/>
<polygon fill="black" stroke="black" points="1685.13,-470.292 1693.75,-464.142 1683.17,-463.57 1685.13,-470.292"/>
</g>
<!-- Malicious_FTPserver_1 -->
<g id="node45" class="node"><title>Malicious_FTPserver_1</title>
<ellipse fill="none" stroke="black" cx="615" cy="-306" rx="95.3752" ry="18"/>
<text text-anchor="middle" x="615" y="-301.8" font-family="Times,serif" font-size="14.00">Malicious_FTPserver_1</text>
</g>
<!-- Malicious_FTPserver_1&#45;&gt;rpea_CVE_2008_6534_Malicious_FTPserver_1 -->
<g id="edge57" class="edge"><title>Malicious_FTPserver_1&#45;&gt;rpea_CVE_2008_6534_Malicious_FTPserver_1</title>
<path fill="none" stroke="black" d="M645.742,-288.941C663.886,-279.463 687.106,-267.333 706.93,-256.977"/>
<polygon fill="black" stroke="black" points="708.816,-259.94 716.059,-252.208 705.575,-253.736 708.816,-259.94"/>
</g>
<!-- rpea_CVE_2008_6534_Malicious_FTPserver_1&#45;&gt;HpFTPserver_1root -->
<g id="edge59" class="edge"><title>rpea_CVE_2008_6534_Malicious_FTPserver_1&#45;&gt;HpFTPserver_1root</title>
<path fill="none" stroke="black" d="M872.213,-215.991C941.337,-206.139 1029.09,-193.12 1107,-180 1114.01,-178.82 1121.31,-177.534 1128.59,-176.215"/>
<polygon fill="black" stroke="black" points="1129.28,-179.648 1138.48,-174.402 1128.01,-172.763 1129.28,-179.648"/>
</g>
<!-- User_1_FTPserver_1 -->
<g id="node47" class="node"><title>User_1_FTPserver_1</title>
<ellipse fill="none" stroke="black" cx="1153" cy="-306" rx="85.1352" ry="18"/>
<text text-anchor="middle" x="1153" y="-301.8" font-family="Times,serif" font-size="14.00">User_1_FTPserver_1</text>
</g>
<!-- User_1_FTPserver_1&#45;&gt;rpea_CVE_2008_6534_User_1_FTPserver_1 -->
<g id="edge62" class="edge"><title>User_1_FTPserver_1&#45;&gt;rpea_CVE_2008_6534_User_1_FTPserver_1</title>
<path fill="none" stroke="black" d="M1128.15,-288.588C1114.23,-279.4 1096.67,-267.804 1081.45,-257.751"/>
<polygon fill="black" stroke="black" points="1083.08,-254.63 1072.8,-252.04 1079.22,-260.471 1083.08,-254.63"/>
</g>
<!-- rpea_CVE_2008_6534_User_1_FTPserver_1&#45;&gt;HpFTPserver_1root -->
<g id="edge64" class="edge"><title>rpea_CVE_2008_6534_User_1_FTPserver_1&#45;&gt;HpFTPserver_1root</title>
<path fill="none" stroke="black" d="M1083.69,-215.876C1105.1,-205.889 1132.19,-193.247 1154.51,-182.829"/>
<polygon fill="black" stroke="black" points="1156.17,-185.915 1163.76,-178.514 1153.21,-179.571 1156.17,-185.915"/>
</g>
<!-- Webserver_Databaseserver -->
<g id="node49" class="node"><title>Webserver_Databaseserver</title>
<ellipse fill="none" stroke="black" cx="2193" cy="-162" rx="106.199" ry="18"/>
<text text-anchor="middle" x="2193" y="-157.8" font-family="Times,serif" font-size="14.00">Webserver_Databaseserver</text>
</g>
<!-- Webserver_Databaseserver&#45;&gt;rpea_CVE_2014_2408_Webserver_Databaseserver -->
<g id="edge67" class="edge"><title>Webserver_Databaseserver&#45;&gt;rpea_CVE_2014_2408_Webserver_Databaseserver</title>
<path fill="none" stroke="black" d="M2163.46,-144.588C2146.46,-135.142 2124.87,-123.152 2106.44,-112.909"/>
<polygon fill="black" stroke="black" points="2108.11,-109.837 2097.67,-108.04 2104.71,-115.956 2108.11,-109.837"/>
</g>
<!-- rpea_CVE_2014_2408_Webserver_Databaseserver&#45;&gt;HpDatabaseserverroot -->
<g id="edge69" class="edge"><title>rpea_CVE_2014_2408_Webserver_Databaseserver&#45;&gt;HpDatabaseserverroot</title>
<path fill="none" stroke="black" d="M1990.83,-71.9656C1939.03,-60.3802 1871.11,-45.1916 1821.3,-34.0512"/>
<polygon fill="black" stroke="black" points="1821.8,-30.5758 1811.27,-31.8089 1820.27,-37.4071 1821.8,-30.5758"/>
</g>
<!-- User_1_Databaseserver -->
<g id="node51" class="node"><title>User_1_Databaseserver</title>
<ellipse fill="none" stroke="black" cx="1641" cy="-162" rx="94.1214" ry="18"/>
<text text-anchor="middle" x="1641" y="-157.8" font-family="Times,serif" font-size="14.00">User_1_Databaseserver</text>
</g>
<!-- User_1_Databaseserver&#45;&gt;rpea_CVE_2014_2408_User_1_Databaseserver -->
<g id="edge72" class="edge"><title>User_1_Databaseserver&#45;&gt;rpea_CVE_2014_2408_User_1_Databaseserver</title>
<path fill="none" stroke="black" d="M1667.49,-144.588C1682.46,-135.314 1701.4,-123.587 1717.73,-113.469"/>
<polygon fill="black" stroke="black" points="1719.83,-116.282 1726.49,-108.04 1716.15,-110.331 1719.83,-116.282"/>
</g>
<!-- rpea_CVE_2014_2408_User_1_Databaseserver&#45;&gt;HpDatabaseserverroot -->
<g id="edge74" class="edge"><title>rpea_CVE_2014_2408_User_1_Databaseserver&#45;&gt;HpDatabaseserverroot</title>
<path fill="none" stroke="black" d="M1754,-71.6966C1754,-63.9827 1754,-54.7125 1754,-46.1124"/>
<polygon fill="black" stroke="black" points="1757.5,-46.1043 1754,-36.1043 1750.5,-46.1044 1757.5,-46.1043"/>
</g>
</g>
</svg>
